<svg xmlns="http://www.w3.org/2000/svg" width="62.54" height="55.77" viewBox="0 0 62.54 55.77">
  <g id="Group_2413" data-name="Group 2413" transform="translate(-3045.984 -654)">
    <g id="Group_135" data-name="Group 135" transform="translate(3056 660)">
      <path id="Subtraction_13" data-name="Subtraction 13" d="M3.433,6.866A3.434,3.434,0,0,1,2.1.27,3.434,3.434,0,0,1,4.769,6.6,3.412,3.412,0,0,1,3.433,6.866Zm0-6.485A3.052,3.052,0,1,0,6.485,3.433,3.055,3.055,0,0,0,3.433.381Z" transform="translate(17.789 18.452)" fill="#fff"/>
      <g id="Group_131" data-name="Group 131" transform="translate(16.954 0)">
        <g id="Group_52" data-name="Group 52" transform="translate(0)">
          <path id="Subtraction_14" data-name="Subtraction 14" d="M2.146,4.291A2.146,2.146,0,0,1,1.31.169a2.146,2.146,0,0,1,1.67,3.954A2.132,2.132,0,0,1,2.146,4.291Zm0-4.053A1.907,1.907,0,1,0,4.053,2.146,1.909,1.909,0,0,0,2.146.238Z" transform="translate(2.122)" fill="#fff"/>
          <rect id="Rectangle_70" data-name="Rectangle 70" width="0.858" height="14.59" transform="translate(3.839 4.077)" fill="#fff"/>
          <rect id="Rectangle_71" data-name="Rectangle 71" width="0.429" height="4.935" transform="matrix(0.588, -0.809, 0.809, 0.588, 0, 6.646)" fill="#fff"/>
          <rect id="Rectangle_74" data-name="Rectangle 74" width="0.429" height="4.935" transform="matrix(-0.588, -0.809, 0.809, -0.588, 4.497, 9.547)" fill="#fff"/>
          <rect id="Rectangle_72" data-name="Rectangle 72" width="0.429" height="4.935" transform="matrix(0.588, -0.809, 0.809, 0.588, 0, 11.367)" fill="#fff"/>
          <rect id="Rectangle_73" data-name="Rectangle 73" width="0.429" height="4.935" transform="matrix(-0.588, -0.809, 0.809, -0.588, 4.497, 14.267)" fill="#fff"/>
        </g>
        <g id="Group_53" data-name="Group 53" transform="translate(0 25.104)">
          <path id="Subtraction_14-2" data-name="Subtraction 14" d="M2.146,0A2.146,2.146,0,0,0,1.31,4.123,2.146,2.146,0,0,0,2.981.169,2.132,2.132,0,0,0,2.146,0Zm0,4.053A1.907,1.907,0,1,1,4.053,2.146,1.909,1.909,0,0,1,2.146,4.053Z" transform="translate(2.122 14.376)" fill="#fff"/>
          <rect id="Rectangle_70-2" data-name="Rectangle 70" width="0.858" height="14.59" transform="translate(3.839)" fill="#fff"/>
          <rect id="Rectangle_71-2" data-name="Rectangle 71" width="0.429" height="4.935" transform="matrix(0.588, 0.809, -0.809, 0.588, 3.992, 9.12)" fill="#fff"/>
          <rect id="Rectangle_74-2" data-name="Rectangle 74" width="0.429" height="4.935" transform="matrix(-0.588, 0.809, -0.809, -0.588, 8.489, 12.02)" fill="#fff"/>
          <rect id="Rectangle_72-2" data-name="Rectangle 72" width="0.429" height="4.935" transform="matrix(0.588, 0.809, -0.809, 0.588, 3.992, 4.399)" fill="#fff"/>
          <rect id="Rectangle_73-2" data-name="Rectangle 73" width="0.429" height="4.935" transform="matrix(-0.588, 0.809, -0.809, -0.588, 8.489, 7.3)" fill="#fff"/>
        </g>
      </g>
      <g id="Group_132" data-name="Group 132" transform="matrix(0.485, 0.875, -0.875, 0.485, 38.282, 7.563)">
        <g id="Group_52-2" data-name="Group 52" transform="translate(0 0)">
          <path id="Subtraction_14-3" data-name="Subtraction 14" d="M2.146,4.291A2.146,2.146,0,0,1,1.31.169a2.146,2.146,0,0,1,1.67,3.954A2.132,2.132,0,0,1,2.146,4.291Zm0-4.053A1.907,1.907,0,1,0,4.053,2.146,1.909,1.909,0,0,0,2.146.238Z" transform="translate(2.122 0)" fill="#fff"/>
          <rect id="Rectangle_70-3" data-name="Rectangle 70" width="0.858" height="14.59" transform="translate(3.839 4.077)" fill="#fff"/>
          <rect id="Rectangle_71-3" data-name="Rectangle 71" width="0.429" height="4.935" transform="matrix(0.588, -0.809, 0.809, 0.588, 0, 6.646)" fill="#fff"/>
          <rect id="Rectangle_74-3" data-name="Rectangle 74" width="0.429" height="4.935" transform="matrix(-0.588, -0.809, 0.809, -0.588, 4.497, 9.547)" fill="#fff"/>
          <rect id="Rectangle_72-3" data-name="Rectangle 72" width="0.429" height="4.935" transform="matrix(0.588, -0.809, 0.809, 0.588, 0, 11.367)" fill="#fff"/>
          <rect id="Rectangle_73-3" data-name="Rectangle 73" width="0.429" height="4.935" transform="matrix(-0.588, -0.809, 0.809, -0.588, 4.497, 14.267)" fill="#fff"/>
        </g>
        <g id="Group_53-2" data-name="Group 53" transform="translate(0 25.104)">
          <path id="Subtraction_14-4" data-name="Subtraction 14" d="M2.146,0A2.146,2.146,0,0,0,1.31,4.123,2.146,2.146,0,0,0,2.981.169,2.132,2.132,0,0,0,2.146,0Zm0,4.053A1.907,1.907,0,1,1,4.053,2.146,1.909,1.909,0,0,1,2.146,4.053Z" transform="translate(2.122 14.376)" fill="#fff"/>
          <rect id="Rectangle_70-4" data-name="Rectangle 70" width="0.858" height="14.59" transform="translate(3.839 0)" fill="#fff"/>
          <rect id="Rectangle_71-4" data-name="Rectangle 71" width="0.429" height="4.935" transform="matrix(0.588, 0.809, -0.809, 0.588, 3.992, 9.12)" fill="#fff"/>
          <rect id="Rectangle_74-4" data-name="Rectangle 74" width="0.429" height="4.935" transform="matrix(-0.588, 0.809, -0.809, -0.588, 8.489, 12.02)" fill="#fff"/>
          <rect id="Rectangle_72-4" data-name="Rectangle 72" width="0.429" height="4.935" transform="matrix(0.588, 0.809, -0.809, 0.588, 3.992, 4.399)" fill="#fff"/>
          <rect id="Rectangle_73-4" data-name="Rectangle 73" width="0.429" height="4.935" transform="matrix(-0.588, 0.809, -0.809, -0.588, 8.489, 7.3)" fill="#fff"/>
        </g>
      </g>
      <g id="Group_133" data-name="Group 133" transform="translate(42.274 29.152) rotate(120)">
        <g id="Group_52-3" data-name="Group 52" transform="translate(0 0)">
          <path id="Subtraction_14-5" data-name="Subtraction 14" d="M2.146,4.291A2.146,2.146,0,0,1,1.31.169a2.146,2.146,0,0,1,1.67,3.954A2.132,2.132,0,0,1,2.146,4.291Zm0-4.053A1.907,1.907,0,1,0,4.053,2.146,1.909,1.909,0,0,0,2.146.238Z" transform="translate(2.122 0)" fill="#fff"/>
          <rect id="Rectangle_70-5" data-name="Rectangle 70" width="0.858" height="14.59" transform="translate(3.839 4.077)" fill="#fff"/>
          <rect id="Rectangle_71-5" data-name="Rectangle 71" width="0.429" height="4.935" transform="matrix(0.588, -0.809, 0.809, 0.588, 0, 6.646)" fill="#fff"/>
          <rect id="Rectangle_74-5" data-name="Rectangle 74" width="0.429" height="4.935" transform="matrix(-0.588, -0.809, 0.809, -0.588, 4.497, 9.547)" fill="#fff"/>
          <rect id="Rectangle_72-5" data-name="Rectangle 72" width="0.429" height="4.935" transform="matrix(0.588, -0.809, 0.809, 0.588, 0, 11.367)" fill="#fff"/>
          <rect id="Rectangle_73-5" data-name="Rectangle 73" width="0.429" height="4.935" transform="matrix(-0.588, -0.809, 0.809, -0.588, 4.497, 14.267)" fill="#fff"/>
        </g>
        <g id="Group_53-3" data-name="Group 53" transform="translate(0 25.104)">
          <path id="Subtraction_14-6" data-name="Subtraction 14" d="M2.146,0A2.146,2.146,0,0,0,1.31,4.123,2.146,2.146,0,0,0,2.981.169,2.132,2.132,0,0,0,2.146,0Zm0,4.053A1.907,1.907,0,1,1,4.053,2.146,1.909,1.909,0,0,1,2.146,4.053Z" transform="translate(2.122 14.376)" fill="#fff"/>
          <rect id="Rectangle_70-6" data-name="Rectangle 70" width="0.858" height="14.59" transform="translate(3.839 0)" fill="#fff"/>
          <rect id="Rectangle_71-6" data-name="Rectangle 71" width="0.429" height="4.935" transform="matrix(0.588, 0.809, -0.809, 0.588, 3.992, 9.12)" fill="#fff"/>
          <rect id="Rectangle_74-6" data-name="Rectangle 74" width="0.429" height="4.935" transform="matrix(-0.588, 0.809, -0.809, -0.588, 8.489, 12.02)" fill="#fff"/>
          <rect id="Rectangle_72-6" data-name="Rectangle 72" width="0.429" height="4.935" transform="matrix(0.588, 0.809, -0.809, 0.588, 3.992, 4.399)" fill="#fff"/>
          <rect id="Rectangle_73-6" data-name="Rectangle 73" width="0.429" height="4.935" transform="matrix(-0.588, 0.809, -0.809, -0.588, 8.489, 7.3)" fill="#fff"/>
        </g>
      </g>
    </g>
    <g id="Group_134" data-name="Group 134" transform="translate(3057.073 660)">
      <path id="Subtraction_15" data-name="Subtraction 15" d="M3.433,6.866A3.434,3.434,0,0,1,2.1.27,3.434,3.434,0,0,1,4.769,6.6,3.412,3.412,0,0,1,3.433,6.866Zm0-6.485A3.052,3.052,0,1,0,6.485,3.433,3.055,3.055,0,0,0,3.433.381Z" transform="translate(16.76 18.452)" fill="#fff"/>
      <path id="Subtraction_14-7" data-name="Subtraction 14" d="M2.146,4.291A2.146,2.146,0,0,1,1.31.169a2.146,2.146,0,0,1,1.67,3.954A2.132,2.132,0,0,1,2.146,4.291Zm0-4.053A1.907,1.907,0,1,0,4.053,2.146,1.909,1.909,0,0,0,2.146.238Z" transform="translate(18.048 0)" fill="#fff"/>
      <rect id="Rectangle_70-7" data-name="Rectangle 70" width="0.858" height="14.59" transform="translate(19.764 4.077)" fill="#fff"/>
      <rect id="Rectangle_71-7" data-name="Rectangle 71" width="0.429" height="4.935" transform="matrix(0.588, -0.809, 0.809, 0.588, 15.925, 6.646)" fill="#fff"/>
      <rect id="Rectangle_74-7" data-name="Rectangle 74" width="0.429" height="4.935" transform="matrix(-0.588, -0.809, 0.809, -0.588, 20.422, 9.547)" fill="#fff"/>
      <rect id="Rectangle_72-7" data-name="Rectangle 72" width="0.429" height="4.935" transform="matrix(0.588, -0.809, 0.809, 0.588, 15.925, 11.367)" fill="#fff"/>
      <rect id="Rectangle_73-7" data-name="Rectangle 73" width="0.429" height="4.935" transform="matrix(-0.588, -0.809, 0.809, -0.588, 20.422, 14.267)" fill="#fff"/>
      <path id="Subtraction_14-8" data-name="Subtraction 14" d="M2.146,0A2.146,2.146,0,0,0,1.31,4.123,2.146,2.146,0,0,0,2.981.169,2.132,2.132,0,0,0,2.146,0Zm0,4.053A1.907,1.907,0,1,1,4.053,2.146,1.909,1.909,0,0,1,2.146,4.053Z" transform="translate(18.048 39.479)" fill="#fff"/>
      <rect id="Rectangle_70-8" data-name="Rectangle 70" width="0.858" height="14.59" transform="translate(19.764 25.104)" fill="#fff"/>
      <rect id="Rectangle_71-8" data-name="Rectangle 71" width="0.429" height="4.935" transform="matrix(0.588, 0.809, -0.809, 0.588, 19.918, 34.223)" fill="#fff"/>
      <rect id="Rectangle_74-8" data-name="Rectangle 74" width="0.429" height="4.935" transform="matrix(-0.588, 0.809, -0.809, -0.588, 24.415, 37.124)" fill="#fff"/>
      <rect id="Rectangle_72-8" data-name="Rectangle 72" width="0.429" height="4.935" transform="matrix(0.588, 0.809, -0.809, 0.588, 19.918, 29.503)" fill="#fff"/>
      <rect id="Rectangle_73-8" data-name="Rectangle 73" width="0.429" height="4.935" transform="matrix(-0.588, 0.809, -0.809, -0.588, 24.415, 32.404)" fill="#fff"/>
      <path id="Subtraction_14-9" data-name="Subtraction 14" d="M2.146,4.291A2.146,2.146,0,0,1,1.31.169a2.146,2.146,0,0,1,1.67,3.954A2.132,2.132,0,0,1,2.146,4.291Zm0-4.053A1.907,1.907,0,1,0,4.053,2.146,1.909,1.909,0,0,0,2.146.238Z" transform="matrix(0.485, 0.875, -0.875, 0.485, 38.282, 9.419)" fill="#fff"/>
      <rect id="Rectangle_70-9" data-name="Rectangle 70" width="0.858" height="14.59" transform="matrix(0.485, 0.875, -0.875, 0.485, 35.549, 12.896)" fill="#fff"/>
      <rect id="Rectangle_71-9" data-name="Rectangle 71" width="0.429" height="4.935" transform="matrix(0.993, 0.122, -0.122, 0.993, 31.44, 10.785)" fill="#fff"/>
      <rect id="Rectangle_74-9" data-name="Rectangle 74" width="0.429" height="4.935" transform="matrix(0.423, -0.906, 0.906, 0.423, 31.084, 16.124)" fill="#fff"/>
      <rect id="Rectangle_72-9" data-name="Rectangle 72" width="0.429" height="4.935" transform="matrix(0.993, 0.122, -0.122, 0.993, 27.312, 13.073)" fill="#fff"/>
      <rect id="Rectangle_73-9" data-name="Rectangle 73" width="0.429" height="4.935" transform="matrix(0.423, -0.906, 0.906, 0.423, 26.955, 18.413)" fill="#fff"/>
      <path id="Subtraction_14-10" data-name="Subtraction 14" d="M2.146,0A2.146,2.146,0,0,0,1.31,4.123,2.146,2.146,0,0,0,2.981.169,2.132,2.132,0,0,0,2.146,0Zm0,4.053A1.907,1.907,0,1,1,4.053,2.146,1.909,1.909,0,0,1,2.146,4.053Z" transform="matrix(0.485, 0.875, -0.875, 0.485, 3.753, 28.559)" fill="#fff"/>
      <rect id="Rectangle_70-10" data-name="Rectangle 70" width="0.858" height="14.59" transform="matrix(0.485, 0.875, -0.875, 0.485, 17.159, 23.091)" fill="#fff"/>
      <rect id="Rectangle_71-10" data-name="Rectangle 71" width="0.429" height="4.935" transform="matrix(-0.423, 0.906, -0.906, -0.423, 9.257, 27.646)" fill="#fff"/>
      <rect id="Rectangle_74-10" data-name="Rectangle 74" width="0.429" height="4.935" transform="matrix(-0.993, -0.122, 0.122, -0.993, 8.9, 32.985)" fill="#fff"/>
      <rect id="Rectangle_72-10" data-name="Rectangle 72" width="0.429" height="4.935" transform="matrix(-0.423, 0.906, -0.906, -0.423, 13.385, 25.358)" fill="#fff"/>
      <rect id="Rectangle_73-10" data-name="Rectangle 73" width="0.429" height="4.935" transform="matrix(-0.993, -0.122, 0.122, -0.993, 13.028, 30.697)" fill="#fff"/>
      <path id="Subtraction_14-11" data-name="Subtraction 14" d="M2.146,4.291A2.146,2.146,0,0,1,1.31.169a2.146,2.146,0,0,1,1.67,3.954A2.132,2.132,0,0,1,2.146,4.291Zm0-4.053A1.907,1.907,0,1,0,4.053,2.146,1.909,1.909,0,0,0,2.146.238Z" transform="translate(40.184 30.99) rotate(120)" fill="#fff"/>
      <rect id="Rectangle_70-11" data-name="Rectangle 70" width="0.858" height="14.59" transform="translate(35.796 30.438) rotate(120)" fill="#fff"/>
      <rect id="Rectangle_71-11" data-name="Rectangle 71" width="0.429" height="4.935" transform="matrix(0.407, 0.914, -0.914, 0.407, 35.49, 25.829)" fill="#fff"/>
      <rect id="Rectangle_74-11" data-name="Rectangle 74" width="0.429" height="4.935" transform="translate(30.729 28.273) rotate(-6)" fill="#fff"/>
      <rect id="Rectangle_72-11" data-name="Rectangle 72" width="0.429" height="4.935" transform="matrix(0.407, 0.914, -0.914, 0.407, 31.402, 23.468)" fill="#fff"/>
      <rect id="Rectangle_73-11" data-name="Rectangle 73" width="0.429" height="4.935" transform="translate(26.641 25.912) rotate(-6)" fill="#fff"/>
      <path id="Subtraction_14-12" data-name="Subtraction 14" d="M2.146,0A2.146,2.146,0,0,0,1.31,4.123,2.146,2.146,0,0,0,2.981.169,2.132,2.132,0,0,0,2.146,0Zm0,4.053A1.907,1.907,0,1,1,4.053,2.146,1.909,1.909,0,0,1,2.146,4.053Z" transform="translate(5.994 11.25) rotate(120)" fill="#fff"/>
      <rect id="Rectangle_70-12" data-name="Rectangle 70" width="0.858" height="14.59" transform="translate(17.586 19.925) rotate(120)" fill="#fff"/>
      <rect id="Rectangle_71-12" data-name="Rectangle 71" width="0.429" height="4.935" transform="translate(9.611 15.498) rotate(174)" fill="#fff"/>
      <rect id="Rectangle_74-12" data-name="Rectangle 74" width="0.429" height="4.935" transform="matrix(-0.407, -0.914, 0.914, -0.407, 4.851, 17.942)" fill="#fff"/>
      <rect id="Rectangle_72-12" data-name="Rectangle 72" width="0.429" height="4.935" transform="translate(13.699 17.858) rotate(174)" fill="#fff"/>
      <rect id="Rectangle_73-12" data-name="Rectangle 73" width="0.429" height="4.935" transform="matrix(-0.407, -0.914, 0.914, -0.407, 8.939, 20.302)" fill="#fff"/>
    </g>
  </g>
</svg>
