<svg xmlns="http://www.w3.org/2000/svg" width="50.341" height="47.776" viewBox="0 0 50.341 47.776">
  <g id="Group_2390" data-name="Group 2390" transform="matrix(0.809, -0.588, 0.588, 0.809, -2832.68, 900.622)">
    <g id="Group_127" data-name="Group 127" transform="translate(2814.359 956)">
      <g id="Group_123" data-name="Group 123" transform="translate(9.678)">
        <rect id="Rectangle_70" data-name="Rectangle 70" width="0.679" height="28.871" transform="translate(3.039)" fill="#fff"/>
        <rect id="Rectangle_71" data-name="Rectangle 71" width="0.34" height="3.906" transform="matrix(0.588, -0.809, 0.809, 0.588, 0, 1.682)" fill="#fff"/>
        <rect id="Rectangle_77" data-name="Rectangle 77" width="0.34" height="3.906" transform="matrix(0.588, 0.809, -0.809, 0.588, 3.16, 24.724)" fill="#fff"/>
        <rect id="Rectangle_74" data-name="Rectangle 74" width="0.34" height="3.906" transform="matrix(-0.588, -0.809, 0.809, -0.588, 3.559, 3.978)" fill="#fff"/>
        <rect id="Rectangle_78" data-name="Rectangle 78" width="0.34" height="3.906" transform="matrix(-0.588, 0.809, -0.809, -0.588, 6.72, 27.02)" fill="#fff"/>
        <rect id="Rectangle_72" data-name="Rectangle 72" width="0.34" height="3.906" transform="matrix(0.588, -0.809, 0.809, 0.588, 0, 5.418)" fill="#fff"/>
        <rect id="Rectangle_76" data-name="Rectangle 76" width="0.34" height="3.906" transform="matrix(0.588, 0.809, -0.809, 0.588, 3.16, 20.987)" fill="#fff"/>
        <rect id="Rectangle_73" data-name="Rectangle 73" width="0.34" height="3.906" transform="matrix(-0.588, -0.809, 0.809, -0.588, 3.559, 7.714)" fill="#fff"/>
        <rect id="Rectangle_75" data-name="Rectangle 75" width="0.34" height="3.906" transform="matrix(-0.588, 0.809, -0.809, -0.588, 6.72, 23.283)" fill="#fff"/>
      </g>
      <g id="Group_125" data-name="Group 125" transform="translate(0 5.727)">
        <rect id="Rectangle_70-2" data-name="Rectangle 70" width="0.679" height="28.871" transform="matrix(0.454, 0.891, -0.891, 0.454, 25.725, 1.944)" fill="#fff"/>
        <rect id="Rectangle_71-2" data-name="Rectangle 71" width="0.34" height="3.906" transform="translate(22.847 0) rotate(9)" fill="#fff"/>
        <rect id="Rectangle_77-2" data-name="Rectangle 77" width="0.34" height="3.906" transform="matrix(-0.454, 0.891, -0.891, -0.454, 3.751, 13.276)" fill="#fff"/>
        <rect id="Rectangle_74-2" data-name="Rectangle 74" width="0.34" height="3.906" transform="matrix(0.454, -0.891, 0.891, 0.454, 22.417, 4.214)" fill="#fff"/>
        <rect id="Rectangle_78-2" data-name="Rectangle 78" width="0.34" height="3.906" transform="translate(3.321 17.49) rotate(-171)" fill="#fff"/>
        <rect id="Rectangle_72-2" data-name="Rectangle 72" width="0.34" height="3.906" transform="translate(19.517 1.696) rotate(9)" fill="#fff"/>
        <rect id="Rectangle_76-2" data-name="Rectangle 76" width="0.34" height="3.906" transform="matrix(-0.454, 0.891, -0.891, -0.454, 7.08, 11.58)" fill="#fff"/>
        <rect id="Rectangle_73-2" data-name="Rectangle 73" width="0.34" height="3.906" transform="matrix(0.454, -0.891, 0.891, 0.454, 19.088, 5.91)" fill="#fff"/>
        <rect id="Rectangle_75-2" data-name="Rectangle 75" width="0.34" height="3.906" transform="translate(6.65 15.794) rotate(-171)" fill="#fff"/>
      </g>
      <g id="Group_124" data-name="Group 124" transform="translate(0.256 5.234)">
        <rect id="Rectangle_70-3" data-name="Rectangle 70" width="0.679" height="28.871" transform="translate(25.378 16.141) rotate(120)" fill="#fff"/>
        <rect id="Rectangle_71-3" data-name="Rectangle 71" width="0.34" height="3.906" transform="translate(25.441 12.669) rotate(66)" fill="#fff"/>
        <rect id="Rectangle_77-3" data-name="Rectangle 77" width="0.34" height="3.906" transform="matrix(-0.995, 0.105, -0.105, -0.995, 3.906, 3.885)" fill="#fff"/>
        <rect id="Rectangle_74-3" data-name="Rectangle 74" width="0.34" height="3.906" transform="matrix(0.995, -0.105, 0.105, 0.995, 21.673, 14.603)" fill="#fff"/>
        <rect id="Rectangle_78-3" data-name="Rectangle 78" width="0.34" height="3.906" transform="translate(0.138 5.819) rotate(-114)" fill="#fff"/>
        <rect id="Rectangle_72-3" data-name="Rectangle 72" width="0.34" height="3.906" transform="translate(22.205 10.801) rotate(66)" fill="#fff"/>
        <rect id="Rectangle_76-3" data-name="Rectangle 76" width="0.34" height="3.906" transform="matrix(-0.995, 0.105, -0.105, -0.995, 7.142, 5.753)" fill="#fff"/>
        <rect id="Rectangle_73-3" data-name="Rectangle 73" width="0.34" height="3.906" transform="matrix(0.995, -0.105, 0.105, 0.995, 18.437, 12.735)" fill="#fff"/>
        <rect id="Rectangle_75-3" data-name="Rectangle 75" width="0.34" height="3.906" transform="translate(3.374 7.687) rotate(-114)" fill="#fff"/>
      </g>
    </g>
    <g id="Group_128" data-name="Group 128" transform="translate(2813 956.04)">
      <g id="Group_116" data-name="Group 116" transform="translate(11.057 0)">
        <g id="Group_115" data-name="Group 115">
          <rect id="Rectangle_70-4" data-name="Rectangle 70" width="0.576" height="28.792" transform="translate(2.917)" fill="#fff"/>
          <rect id="Rectangle_71-4" data-name="Rectangle 71" width="0.34" height="3.906" transform="matrix(0.588, -0.809, 0.809, 0.588, 0, 1.642)" fill="#fff"/>
          <rect id="Rectangle_77-4" data-name="Rectangle 77" width="0.34" height="3.906" transform="matrix(0.588, 0.809, -0.809, 0.588, 3.16, 24.684)" fill="#fff"/>
          <rect id="Rectangle_74-4" data-name="Rectangle 74" width="0.34" height="3.906" transform="matrix(-0.588, -0.809, 0.809, -0.588, 3.559, 3.938)" fill="#fff"/>
          <rect id="Rectangle_78-4" data-name="Rectangle 78" width="0.34" height="3.906" transform="matrix(-0.588, 0.809, -0.809, -0.588, 6.72, 26.98)" fill="#fff"/>
          <rect id="Rectangle_72-4" data-name="Rectangle 72" width="0.34" height="3.906" transform="matrix(0.588, -0.809, 0.809, 0.588, 0, 5.379)" fill="#fff"/>
          <rect id="Rectangle_76-4" data-name="Rectangle 76" width="0.34" height="3.906" transform="matrix(0.588, 0.809, -0.809, 0.588, 3.16, 20.948)" fill="#fff"/>
          <rect id="Rectangle_73-4" data-name="Rectangle 73" width="0.34" height="3.906" transform="matrix(-0.588, -0.809, 0.809, -0.588, 3.559, 7.675)" fill="#fff"/>
          <rect id="Rectangle_75-4" data-name="Rectangle 75" width="0.34" height="3.906" transform="matrix(-0.588, 0.809, -0.809, -0.588, 6.72, 23.244)" fill="#fff"/>
        </g>
      </g>
      <g id="Group_117" data-name="Group 117" transform="matrix(0.454, 0.891, -0.891, 0.454, 25.725, 4.924)">
        <g id="Group_115-2" data-name="Group 115" transform="translate(0 0)">
          <rect id="Rectangle_70-5" data-name="Rectangle 70" width="0.679" height="28.871" transform="translate(3.039)" fill="#fff"/>
          <rect id="Rectangle_71-5" data-name="Rectangle 71" width="0.34" height="3.906" transform="matrix(0.588, -0.809, 0.809, 0.588, 0, 1.682)" fill="#fff"/>
          <rect id="Rectangle_77-5" data-name="Rectangle 77" width="0.34" height="3.906" transform="matrix(0.588, 0.809, -0.809, 0.588, 3.16, 24.724)" fill="#fff"/>
          <rect id="Rectangle_74-5" data-name="Rectangle 74" width="0.34" height="3.906" transform="matrix(-0.588, -0.809, 0.809, -0.588, 3.559, 3.978)" fill="#fff"/>
          <rect id="Rectangle_78-5" data-name="Rectangle 78" width="0.34" height="3.906" transform="matrix(-0.588, 0.809, -0.809, -0.588, 6.72, 27.02)" fill="#fff"/>
          <rect id="Rectangle_72-5" data-name="Rectangle 72" width="0.34" height="3.906" transform="matrix(0.588, -0.809, 0.809, 0.588, 0, 5.418)" fill="#fff"/>
          <rect id="Rectangle_76-5" data-name="Rectangle 76" width="0.34" height="3.906" transform="matrix(0.588, 0.809, -0.809, 0.588, 3.16, 20.987)" fill="#fff"/>
          <rect id="Rectangle_73-5" data-name="Rectangle 73" width="0.34" height="3.906" transform="matrix(-0.588, -0.809, 0.809, -0.588, 3.559, 7.714)" fill="#fff"/>
          <rect id="Rectangle_75-5" data-name="Rectangle 75" width="0.34" height="3.906" transform="matrix(-0.588, 0.809, -0.809, -0.588, 6.72, 23.283)" fill="#fff"/>
        </g>
      </g>
      <g id="Group_118" data-name="Group 118" transform="translate(28.533 18.704) rotate(120)">
        <g id="Group_115-3" data-name="Group 115" transform="translate(0 0)">
          <rect id="Rectangle_70-6" data-name="Rectangle 70" width="0.679" height="28.871" transform="translate(3.039 0)" fill="#fff"/>
          <rect id="Rectangle_71-6" data-name="Rectangle 71" width="0.34" height="3.906" transform="matrix(0.588, -0.809, 0.809, 0.588, 0, 1.682)" fill="#fff"/>
          <rect id="Rectangle_77-6" data-name="Rectangle 77" width="0.34" height="3.906" transform="matrix(0.588, 0.809, -0.809, 0.588, 3.16, 24.724)" fill="#fff"/>
          <rect id="Rectangle_74-6" data-name="Rectangle 74" width="0.34" height="3.906" transform="matrix(-0.588, -0.809, 0.809, -0.588, 3.559, 3.978)" fill="#fff"/>
          <rect id="Rectangle_78-6" data-name="Rectangle 78" width="0.34" height="3.906" transform="matrix(-0.588, 0.809, -0.809, -0.588, 6.72, 27.02)" fill="#fff"/>
          <rect id="Rectangle_72-6" data-name="Rectangle 72" width="0.34" height="3.906" transform="matrix(0.588, -0.809, 0.809, 0.588, 0, 5.418)" fill="#fff"/>
          <rect id="Rectangle_76-6" data-name="Rectangle 76" width="0.34" height="3.906" transform="matrix(0.588, 0.809, -0.809, 0.588, 3.16, 20.987)" fill="#fff"/>
          <rect id="Rectangle_73-6" data-name="Rectangle 73" width="0.34" height="3.906" transform="matrix(-0.588, -0.809, 0.809, -0.588, 3.559, 7.714)" fill="#fff"/>
          <rect id="Rectangle_75-6" data-name="Rectangle 75" width="0.34" height="3.906" transform="matrix(-0.588, 0.809, -0.809, -0.588, 6.72, 23.283)" fill="#fff"/>
        </g>
      </g>
    </g>
  </g>
</svg>
