<svg id="ილიაუნის_ლოგო" data-name="ილიაუნის ლოგო" xmlns="http://www.w3.org/2000/svg" width="60" height="59.833" viewBox="0 0 60 59.833">
  <path id="Path_5" data-name="Path 5" d="M37.5,10.122h0A19.673,19.673,0,0,0,17.832,29.792h0A19.671,19.671,0,0,0,37.5,49.463h0v-.439h0a19.234,19.234,0,0,1-19.233-19.23h0A19.233,19.233,0,0,1,37.5,10.563h0Zm0-8.056h0A27.846,27.846,0,0,0,9.662,29.9v.006A27.85,27.85,0,0,0,37.5,57.747h0v-.439h0a27.4,27.4,0,1,1,0-54.8h0V2.066Zm0-1.478A29.334,29.334,0,0,0,8.347,29.913h0a29.329,29.329,0,0,0,29.158,29.33l0,.584A29.913,29.913,0,1,1,37.5,0V.589Zm0,48.875A19.671,19.671,0,0,0,57.176,29.79v0A19.672,19.672,0,0,0,37.506,10.122l0,.44a19.236,19.236,0,0,1,19.228,19.23h0A19.236,19.236,0,0,1,37.5,49.024Zm0,8.284a27.841,27.841,0,1,0,0-55.682v.44A27.407,27.407,0,0,1,64.906,29.9v.006a27.4,27.4,0,0,1-27.4,27.4Zm.17-57.16H37.5V0h.174a29.916,29.916,0,0,1,0,59.833H37.5v-.587h.174A29.331,29.331,0,0,0,67.009,29.907v.006A29.336,29.336,0,0,0,37.674.587Z" transform="translate(-7.59)" fill="#fff"/>
  <path id="Path_6" data-name="Path 6" d="M37.5,10.122h0A19.673,19.673,0,0,0,17.832,29.792h0A19.671,19.671,0,0,0,37.5,49.463h0v-.439h0a19.234,19.234,0,0,1-19.233-19.23h0A19.233,19.233,0,0,1,37.5,10.563h0Zm0-8.056h0A27.846,27.846,0,0,0,9.662,29.9v.006A27.85,27.85,0,0,0,37.5,57.747h0v-.439h0a27.4,27.4,0,1,1,0-54.8h0V2.066Zm0-1.478A29.334,29.334,0,0,0,8.347,29.913h0a29.329,29.329,0,0,0,29.158,29.33l0,.584A29.913,29.913,0,1,1,37.5,0V.589Zm0,48.875A19.671,19.671,0,0,0,57.176,29.79v0A19.672,19.672,0,0,0,37.506,10.122l0,.44a19.236,19.236,0,0,1,19.228,19.23h0A19.236,19.236,0,0,1,37.5,49.024Zm0,8.284a27.841,27.841,0,1,0,0-55.682v.44A27.407,27.407,0,0,1,64.906,29.9v.006a27.4,27.4,0,0,1-27.4,27.4Zm.17-57.16H37.5V0h.174a29.916,29.916,0,0,1,0,59.833H37.5v-.587h.174A29.331,29.331,0,0,0,67.009,29.907v.006A29.336,29.336,0,0,0,37.674.587Z" transform="translate(-7.59)" fill="#fff"/>
  <path id="Path_7" data-name="Path 7" d="M77.8,45.221h0a1.326,1.326,0,0,1-.835-.718,1.47,1.47,0,0,1,.073-1.078L78,40.893l.038-.1.1.039.412.159.1.038-.039.1-.969,2.531h0a.985.985,0,0,0-.064.677.668.668,0,0,0,.429.383h0a.748.748,0,0,0,.579,0,.758.758,0,0,0,.387-.436h0a.727.727,0,0,0,.064-.28,1.259,1.259,0,0,0-.08-.349,1.26,1.26,0,0,1-.061-.27.7.7,0,0,1,.019-.242l.033-.112.108.041.418.161.1.038-.038.1a.364.364,0,0,0-.023.149.562.562,0,0,0,.042.182h0a1.286,1.286,0,0,1,.109.427,1.021,1.021,0,0,1-.086.423h0a1.212,1.212,0,0,1-.682.7h0a1.49,1.49,0,0,1-1.091-.032ZM75.887,44.1a1.307,1.307,0,0,1-1.112.209h0a1.426,1.426,0,0,1-.9-.588,1.3,1.3,0,0,1-.174-1.026h0a1.335,1.335,0,0,1,.1-.287h0a1.4,1.4,0,0,1,.168-.264l.041-.051.064.015.43.1.165.038-.105.132a1.1,1.1,0,0,0-.137.219,1.115,1.115,0,0,0-.082.242h0a.849.849,0,0,0,.064.613h0a.71.71,0,0,0,.477.327h0a.637.637,0,0,0,.613-.138,1.506,1.506,0,0,0,.363-.777,1.107,1.107,0,0,0-.015-.667,1.471,1.471,0,0,0-.407-.524h0a2.132,2.132,0,0,1-.517-.628,1,1,0,0,1-.051-.678c.008-.04.019-.081.03-.121h0c.012-.041.027-.084.042-.127l.033-.086.088.021.437.1.121.027-.045.114a1.391,1.391,0,0,0-.039.153l-.01.041a.565.565,0,0,0,.033.413,2.267,2.267,0,0,0,.4.474,2.061,2.061,0,0,1,.523.778,1.56,1.56,0,0,1,.021.857,1.829,1.829,0,0,1-.629,1.091ZM71.02,42.453a5.943,5.943,0,0,0,.263,1.1l.053.152-.16-.011-.447-.032h-.07l-.023-.068a7.517,7.517,0,0,1-.268-1.2h0a5.327,5.327,0,0,1-.057-1.1,2.215,2.215,0,0,1,.494-1.342,1.433,1.433,0,0,1,2.2.164,2.211,2.211,0,0,1,.3,1.393,5.329,5.329,0,0,1-.207,1.06,8.151,8.151,0,0,1-.436,1.164l-.031.067h-.073l-.453-.034-.16-.011.074-.143a6.009,6.009,0,0,0,.435-1.072,5.143,5.143,0,0,0,.2-1.078,1.855,1.855,0,0,0-.164-1.02.727.727,0,0,0-1.219-.091,1.862,1.862,0,0,0-.3.989,5.58,5.58,0,0,0,.052,1.108Zm-5.861.108.305-.036a1.469,1.469,0,0,1-.4-.39,1.876,1.876,0,0,1-.293-.849,1.617,1.617,0,0,1,.15-1.02.937.937,0,0,1,.737-.466h0a.809.809,0,0,1,.649.2.925.925,0,0,1,.229-.207h0a.969.969,0,0,1,.413-.142h0a.916.916,0,0,1,.7.193.9.9,0,0,1,.257-.218,1.244,1.244,0,0,1,.474-.148h0a.921.921,0,0,1,.712.209,1.157,1.157,0,0,1,.376.765h0a1.851,1.851,0,0,1-.022.473,2.847,2.847,0,0,1-.133.525l-.023.061-.064.007-.451.053-.177.021.068-.166a2.126,2.126,0,0,0,.134-.47,1.557,1.557,0,0,0,.011-.436.634.634,0,0,0-.161-.4.379.379,0,0,0-.319-.093h0a.394.394,0,0,0-.287.156.5.5,0,0,0-.07.35h0l.079.663.013.1-.105.013-.332.04-.1.012-.013-.105-.073-.662a.541.541,0,0,0-.144-.337.363.363,0,0,0-.3-.069h0a.378.378,0,0,0-.284.136.524.524,0,0,0-.057.364l.08.663.012.105-.105.012-.331.04-.105.012-.012-.105-.08-.663a.593.593,0,0,0-.128-.347.3.3,0,0,0-.258-.069.313.313,0,0,0-.279.189,1.435,1.435,0,0,0-.027.66,1.312,1.312,0,0,0,.44.929,1.51,1.51,0,0,0,.969.256,4.915,4.915,0,0,1,1.7.153,1.15,1.15,0,0,1,.775.97l.022.112-.113.013-.443.055-.1.012-.021-.092a.781.781,0,0,0-.7-.633,7.442,7.442,0,0,0-2.162.056c-.095.011-.19.024-.287.039s-.191.03-.284.047l-.11.019-.013-.112-.036-.326-.012-.1.105-.013Zm-2.2,2.3L62.537,45l-.068.022-.046-.055a7.27,7.27,0,0,1-.7-1.007,5.322,5.322,0,0,1-.467-1,2.213,2.213,0,0,1-.046-1.431h0a1.346,1.346,0,0,1,.893-.833h0a1.344,1.344,0,0,1,1.212.156,2.2,2.2,0,0,1,.8,1.178,5.336,5.336,0,0,1,.207,1.058,8.3,8.3,0,0,1,.033,1.243v.074l-.069.022-.43.141-.153.051.015-.161a6.046,6.046,0,0,0,0-1.157,5.142,5.142,0,0,0-.218-1.068h0a1.838,1.838,0,0,0-.537-.885.7.7,0,0,0-.692-.129h0a.7.7,0,0,0-.473.5,1.832,1.832,0,0,0,.087,1.04h0a5.394,5.394,0,0,0,.458,1.009,5.891,5.891,0,0,0,.66.927l.107.121ZM84.094,82.6a3.247,3.247,0,0,1,.451.532h0l.932,1.361a1.336,1.336,0,0,1,.288.9,1.036,1.036,0,0,1-.493.72,1.012,1.012,0,0,1-.471.178,1.026,1.026,0,0,1-.364-.033.94.94,0,0,1-.108.355,1.139,1.139,0,0,1-.373.4h0a.959.959,0,0,1-.82.178,1.394,1.394,0,0,1-.727-.6h0l-.929-1.365a3.361,3.361,0,0,1-.333-.606,2.462,2.462,0,0,1-.162-.617l-.008-.063.053-.036.363-.252.131-.088.033.154a3.783,3.783,0,0,0,.185.621,2.537,2.537,0,0,0,.262.5l.969,1.421h0a.864.864,0,0,0,.364.341.334.334,0,0,0,.319-.052h0a.418.418,0,0,0,.193-.313A.706.706,0,0,0,83.7,85.8l-.658-.961-.059-.087.087-.059.363-.253.087-.061.061.087.66.964h0a.691.691,0,0,0,.354.29.414.414,0,0,0,.364-.063h0a.341.341,0,0,0,.171-.284.875.875,0,0,0-.188-.467l-.969-1.421a2.489,2.489,0,0,0-.363-.421,4.022,4.022,0,0,0-.515-.4l-.13-.086.128-.088.364-.251.053-.036.057.03a2.424,2.424,0,0,1,.514.375Zm4.234-.146a.623.623,0,0,0,.429-.2h0a.706.706,0,0,0,.211-.467.606.606,0,0,0-.2-.446h0a.579.579,0,0,0-.417-.175.606.606,0,0,0-.417.2h0a.753.753,0,0,0-.227.485.569.569,0,0,0,.182.436.606.606,0,0,0,.435.172Zm-.848-1.407h0a1.51,1.51,0,0,1,.877-.485,1.014,1.014,0,0,1,.858.295h0a1.127,1.127,0,0,1,.356.835,1.359,1.359,0,0,1-.416.919h0a1.314,1.314,0,0,1-.471.316,1.371,1.371,0,0,1-.454.09,1.161,1.161,0,0,1-.063.442,1.363,1.363,0,0,1-.32.5h0a1.108,1.108,0,0,1-.72.33,1,1,0,0,1-.766-.279h0a1.091,1.091,0,0,1-.326-.6.984.984,0,0,1,.021-.428.958.958,0,0,1-.423.006,1.387,1.387,0,0,1-1.014-1.372,1.747,1.747,0,0,1,.523-1.091h0a1.986,1.986,0,0,1,1.015-.6,1.079,1.079,0,0,1,.994.3h0c.073.069.133.132.183.189a.88.88,0,0,1,.121.164l.038.068-.055.056-.324.333-.1.1-.07-.121c-.036-.063-.067-.114-.09-.149a.5.5,0,0,0-.059-.078h0a.775.775,0,0,0-.606-.242,1.022,1.022,0,0,0-.634.343h0a1.034,1.034,0,0,0-.334.678.849.849,0,0,0,.294.632h0a.914.914,0,0,0,.446.275.355.355,0,0,0,.322-.121l.233-.242.073-.075.076.073.281.272.076.074-.074.076-.222.227h0a.485.485,0,0,0-.121.378.66.66,0,0,0,.206.406h0a.492.492,0,0,0,.34.147.515.515,0,0,0,.364-.172h0a.615.615,0,0,0,.174-.3.492.492,0,0,0-.034-.285c-.038-.024-.074-.05-.109-.078h0a1.476,1.476,0,0,1-.127-.11h0a1.11,1.11,0,0,1-.342-.807,1.3,1.3,0,0,1,.4-.894Zm2.328-4.272a5.478,5.478,0,0,1,.984.493H90.8a2.219,2.219,0,0,1,.908,1.066,1.345,1.345,0,0,1-.177,1.228h0a1.34,1.34,0,0,1-1.049.624,2.2,2.2,0,0,1-1.346-.426h0a5.3,5.3,0,0,1-.818-.7,8.238,8.238,0,0,1-.8-.954l-.042-.059.041-.062.252-.377.09-.135.087.136a6.013,6.013,0,0,0,.716.908,5.1,5.1,0,0,0,.832.7h0a1.827,1.827,0,0,0,.969.364.7.7,0,0,0,.62-.319h0a.706.706,0,0,0,.059-.7,1.847,1.847,0,0,0-.708-.754,5.419,5.419,0,0,0-.988-.5A5.766,5.766,0,0,0,88.358,77l-.16-.029.09-.135.248-.373.04-.058.07.013a7.411,7.411,0,0,1,1.172.358Zm1.6-1.748h0a.924.924,0,0,0,.074-.627.656.656,0,0,0-.378-.426h0a.713.713,0,0,0-.582-.022.882.882,0,0,0-.434.467.933.933,0,0,0-.075.649.669.669,0,0,0,.382.417h0a.709.709,0,0,0,.56.03.878.878,0,0,0,.452-.485h0Zm.174-1.555,1.555.7a1.231,1.231,0,0,1,.64.581.938.938,0,0,1-.04.8,1.221,1.221,0,0,1-.288.409h0a.877.877,0,0,1-.276.167.85.85,0,0,1,.065.286.938.938,0,0,1-.091.43h0a1.091,1.091,0,0,1-.242.338,1.279,1.279,0,0,1-.364.234l-.044.019-.042-.021-.458-.21.033-.2a.909.909,0,0,0,.382-.13.582.582,0,0,0,.228-.242h0a.269.269,0,0,0,.007-.253h0a.606.606,0,0,0-.292-.228l-.331-.15-.1-.045.044-.1.187-.407.044-.1.1.045.33.15a.491.491,0,0,0,.363.039.418.418,0,0,0,.242-.233h0a.346.346,0,0,0,.015-.31.654.654,0,0,0-.324-.258l-.877-.392a1.345,1.345,0,0,1,.011.312,1.567,1.567,0,0,1-.141.529h0a1.686,1.686,0,0,1-.738.828,1.181,1.181,0,0,1-1.052,0h0a1.185,1.185,0,0,1-.662-.737,1.591,1.591,0,0,1,.121-1.121h0a1.534,1.534,0,0,1,.775-.826,1.5,1.5,0,0,1,1.212.09h0Zm-.271-1.683a.8.8,0,0,0,.5.364h0a.689.689,0,0,0,.54-.061.727.727,0,0,0,.333-.439h0a.759.759,0,0,0-.053-.55.734.734,0,0,0-.47-.371h0a.744.744,0,0,0-.549.051.716.716,0,0,0-.355.452h0a.728.728,0,0,0,.055.55Zm2.311-.621.121-.424.029-.1.1.028h.006a1.447,1.447,0,0,1,.9.64,1.392,1.392,0,0,1,.087,1.091h0v.007h0a1.274,1.274,0,0,1-.545.753,1.211,1.211,0,0,1-.986.105h0l-1.568-.445h0a1.527,1.527,0,0,1-.948-.634,1.365,1.365,0,0,1-.074-1.1h0a1.47,1.47,0,0,1,.606-.862,1.233,1.233,0,0,1,1.017-.121h0a1.254,1.254,0,0,1,.773.606,1.416,1.416,0,0,1,.088,1.068h0a1.333,1.333,0,0,1-.227.458,1.221,1.221,0,0,1-.191.2l.652.184a.883.883,0,0,0,.589,0,.536.536,0,0,0,.3-.364h0a.684.684,0,0,0-.078-.583A.978.978,0,0,0,93.7,71.3l-.1-.029Zm.1-6.012a1.862,1.862,0,0,1,.894-.112,1.608,1.608,0,0,1,.969.364.94.94,0,0,1,.3.816h0a.849.849,0,0,1-.13.389.82.82,0,0,1-.2.19.913.913,0,0,1,.154.264.99.99,0,0,1,.057.436h0a.914.914,0,0,1-.336.649.936.936,0,0,1,.161.3,1.247,1.247,0,0,1,.047.493h0a.921.921,0,0,1-.35.656,1.149,1.149,0,0,1-.826.211h0a1.781,1.781,0,0,1-.457-.121,2.746,2.746,0,0,1-.485-.242l-.055-.034.006-.064.04-.451.017-.178.148.1a2.181,2.181,0,0,0,.43.229h0a1.547,1.547,0,0,0,.426.1h0a.638.638,0,0,0,.414-.076h0a.364.364,0,0,0,.158-.293h0a.392.392,0,0,0-.091-.31.485.485,0,0,0-.328-.143h0l-.668-.061-.105-.009.01-.105.03-.333.01-.105.105.01.664.059h0a.532.532,0,0,0,.363-.065h0a.364.364,0,0,0,.131-.279h0a.388.388,0,0,0-.079-.307h0A.531.531,0,0,0,94.8,67h0l-.665-.059-.105-.01.01-.105.029-.331.01-.105.1.008.665.058a.592.592,0,0,0,.364-.056.3.3,0,0,0,.121-.242.307.307,0,0,0-.13-.31,1.39,1.39,0,0,0-.637-.161h0a1.3,1.3,0,0,0-1,.242,1.527,1.527,0,0,0-.45.9h0a5.133,5.133,0,0,1-.5,1.632,1.156,1.156,0,0,1-1.11.56H91.4l.01-.113.039-.446.008-.1h.1a.777.777,0,0,0,.761-.554,7.446,7.446,0,0,0,.389-2.128c.008-.1.016-.2.021-.289h0c.006-.1.011-.194.015-.286V65l.11.011.333.029.105.01-.01.1-.027.306a1.454,1.454,0,0,1,.463-.308ZM95.1,68.8Zm-.814-7.227.143-.017a1.13,1.13,0,0,1,.9.273,1.379,1.379,0,0,1,.411.909h0a1.42,1.42,0,0,1-.2.93,1.029,1.029,0,0,1-.786.45h0l-1.716.172a1.644,1.644,0,0,1-1.131-.223h0a1.232,1.232,0,0,1-.485-.936h0a1.491,1.491,0,0,1,.263-1.072,1.423,1.423,0,0,1,1.032-.523h.006a1.287,1.287,0,0,1,.206,0,1.865,1.865,0,0,1,.231.03l.078.015.007.079.045.446.013.139-.138-.025a1.84,1.84,0,0,0-.212-.027,1.2,1.2,0,0,0-.176,0,1,1,0,0,0-.642.274.711.711,0,0,0-.174.579.633.633,0,0,0,.253.485.969.969,0,0,0,.645.121l1.831-.183a.55.55,0,0,0,.4-.2.652.652,0,0,0,.1-.47h0a.669.669,0,0,0-.211-.473.7.7,0,0,0-.519-.109h0a.671.671,0,0,0-.121.016l-.082.016-.121.025-.011-.121-.044-.446-.008-.1.094-.018.108-.019Zm-1.532-1.5a.668.668,0,0,0,.076-.527.786.786,0,0,0-.326-.485.687.687,0,0,0-.542-.069h0a.782.782,0,0,0-.463.322.7.7,0,0,0-.09.563h0a.727.727,0,0,0,.331.449h0a.727.727,0,0,0,.551.065.761.761,0,0,0,.463-.324Zm-1.293.8a1.415,1.415,0,0,1-.58-.86h0a1.361,1.361,0,0,1,.137-1.066,1.436,1.436,0,0,1,.9-.616l2.612-.664.1-.027.027.1.109.429.027.1-.1.025-1.7.432,1.038.748.041.059.128.506-.165.112-.63-.463a1.307,1.307,0,0,1-.158.755,1.253,1.253,0,0,1-.806.586h0a1.235,1.235,0,0,1-.985-.162ZM90.373,56.2a.71.71,0,0,0,.011.581h0a.639.639,0,0,0,.468.424,1.537,1.537,0,0,0,.848-.152,1.12,1.12,0,0,0,.536-.4,1.485,1.485,0,0,0,.193-.636,2.132,2.132,0,0,1,.213-.783,1,1,0,0,1,.526-.435h0c.038-.015.075-.029.113-.041h0l.13-.04.09-.025.036.086.172.413.045.108-.113.034c-.039.011-.1.038-.182.07h-.008a.573.573,0,0,0-.32.266,2.338,2.338,0,0,0-.158.6,2.048,2.048,0,0,1-.333.875,1.537,1.537,0,0,1-.688.512,1.849,1.849,0,0,1-1.254.121,1.309,1.309,0,0,1-.813-.789,1.431,1.431,0,0,1-.036-1.07,1.348,1.348,0,0,1,1.029-.818,1.379,1.379,0,0,1,.311-.016h.065l.027.061.17.409.064.154-.167-.008a1.22,1.22,0,0,0-.259.016h0a1.146,1.146,0,0,0-.242.072h0a.848.848,0,0,0-.465.406Zm.234-1.736a1.029,1.029,0,0,1-.326.281h0a1.211,1.211,0,0,1-.969.137,1.489,1.489,0,0,1-.848-.7h0a1.347,1.347,0,0,1-.218-1.08,1.476,1.476,0,0,1,.717-.807l2.322-1.4.091-.055.055.091.229.377.055.091-.091.055L89.3,52.866h0a.978.978,0,0,0-.459.491h0a.672.672,0,0,0,.1.567h0a.74.74,0,0,0,.456.349.756.756,0,0,0,.571-.108h0a.717.717,0,0,0,.224-.182,1.2,1.2,0,0,0,.147-.324h0a1.132,1.132,0,0,1,.121-.252.649.649,0,0,1,.167-.181l.092-.067.059.1.231.383.056.091-.091.055a.38.38,0,0,0-.111.1.594.594,0,0,0-.078.17,1.267,1.267,0,0,1-.173.4ZM50.7,53.128a5.417,5.417,0,0,1-.969-.524h0a2.238,2.238,0,0,1-.877-1.091,1.346,1.346,0,0,1,.216-1.226h0a1.341,1.341,0,0,1,1.07-.593,2.195,2.195,0,0,1,1.333.469h0a5.251,5.251,0,0,1,.795.727,8.3,8.3,0,0,1,.767.981l.04.061-.042.059-.263.364-.093.131-.084-.138a6.061,6.061,0,0,0-.687-.929,5.13,5.13,0,0,0-.811-.727,1.853,1.853,0,0,0-.955-.393.706.706,0,0,0-.63.3h0a.7.7,0,0,0-.085.681,1.831,1.831,0,0,0,.683.782h0a5.394,5.394,0,0,0,.969.531,5.813,5.813,0,0,0,1.082.353l.158.034-.093.131-.261.364-.041.058-.069-.016a7.441,7.441,0,0,1-1.161-.4ZM47.461,54.15a.376.376,0,0,0-.2.2h0a.355.355,0,0,0-.023.282.408.408,0,0,0,.218.215h0a.363.363,0,0,0,.286.024.4.4,0,0,0,.211-.209h0a.332.332,0,0,0,.013-.273.416.416,0,0,0-.216-.213h0a.363.363,0,0,0-.284-.027Zm-.2.2Zm.689.312Zm.606.021a.324.324,0,0,0-.2.194h0a.349.349,0,0,0-.016.284.439.439,0,0,0,.223.221h0a.338.338,0,0,0,.485-.172h0a.377.377,0,0,0,.03-.272.321.321,0,0,0-.177-.188h0a.529.529,0,0,0-.345-.065Zm-.894.763a.756.756,0,0,1-.5-.059h0a.812.812,0,0,1-.453-.529,1.1,1.1,0,0,1,.105-.75h0a1.011,1.011,0,0,1,.5-.523.826.826,0,0,1,.686.038h0a.644.644,0,0,1,.282.242h0a.647.647,0,0,1,.047.091,1.294,1.294,0,0,1,.653-.506h0a1.461,1.461,0,0,1,1.105.112h0a1.461,1.461,0,0,1,.836,1,2.286,2.286,0,0,1-.242,1.486h0a2.238,2.238,0,0,1-.992,1.078,1.416,1.416,0,0,1-1.261.015h0a2.143,2.143,0,0,1-.606-.417,1.751,1.751,0,0,1-.383-.573l-.018-.044.021-.042.189-.4.1-.206.093.209a1.7,1.7,0,0,0,.344.5,1.845,1.845,0,0,0,.516.364h0a.925.925,0,0,0,.86.008,1.613,1.613,0,0,0,.658-.763h0a1.369,1.369,0,0,0,.13-1,1.176,1.176,0,0,0-.666-.689h0a.866.866,0,0,0-.584-.073.673.673,0,0,0-.2.091.838.838,0,0,1,.364.087h0a.727.727,0,0,1,.394.523,1.138,1.138,0,0,1-.108.727A1.153,1.153,0,0,1,49,56a.77.77,0,0,1-.682,0h0a.787.787,0,0,1-.373-.373.835.835,0,0,1-.078-.28.727.727,0,0,1-.223.1ZM46.178,59.86c-.044-.01-.091-.021-.139-.035h0a1.139,1.139,0,0,1-.727-.563,1.366,1.366,0,0,1-.062-1.014h0a1.4,1.4,0,0,1,.537-.81,1.034,1.034,0,0,1,.878-.121h0l1.664.466h0a1.607,1.607,0,0,1,.969.62,1.218,1.218,0,0,1,.111,1.045,1.475,1.475,0,0,1-.665.924,1.436,1.436,0,0,1-1.121.093,1.232,1.232,0,0,1-.2-.074h0a2.066,2.066,0,0,1-.206-.113l-.068-.042.022-.076.121-.43.038-.136.121.073c.068.041.132.076.19.1a1.16,1.16,0,0,0,.164.062h0a1,1,0,0,0,.7-.022.706.706,0,0,0,.373-.474.637.637,0,0,0-.061-.547.95.95,0,0,0-.557-.341l-1.778-.5h0a.551.551,0,0,0-.446.04.658.658,0,0,0-.264.4h0a.662.662,0,0,0,.023.518h0a.7.7,0,0,0,.446.291h0a1.074,1.074,0,0,0,.121.029l.081.015.121.017-.033.121-.121.43-.025.092-.093-.016a.579.579,0,0,1-.11-.021Zm-1.132,2.574a.364.364,0,0,0-.121.255V62.7h0A.364.364,0,0,0,45,62.97h0a.4.4,0,0,0,.269.121h0a.363.363,0,0,0,.276-.075.388.388,0,0,0,.121-.265h0a.334.334,0,0,0-.081-.263h0a.414.414,0,0,0-.274-.121.363.363,0,0,0-.276.072ZM45.678,62.753Zm.572-.188a.327.327,0,0,0-.121.251.351.351,0,0,0,.082.27.427.427,0,0,0,.285.132.363.363,0,0,0,.274-.07h0a.364.364,0,0,0,.121-.255.37.37,0,0,0-.064-.269A.32.32,0,0,0,46.6,62.5a.522.522,0,0,0-.347.057Zm-.584,1.021a.746.746,0,0,1-.485.114.807.807,0,0,1-.606-.344h0a1.1,1.1,0,0,1-.156-.742h0a1.01,1.01,0,0,1,.292-.655h0a.82.82,0,0,1,.657-.2h0a.672.672,0,0,1,.35.135.819.819,0,0,1,.075.07,1.3,1.3,0,0,1,.448-.7,1.467,1.467,0,0,1,1.074-.274h0a1.461,1.461,0,0,1,1.107.63,2.264,2.264,0,0,1,.3,1.512h0a2.234,2.234,0,0,1-.568,1.349,1.414,1.414,0,0,1-1.184.449h0a2.148,2.148,0,0,1-.711-.182,1.771,1.771,0,0,1-.555-.41L45.67,64.3v-.047l.044-.439.023-.228.159.165a1.7,1.7,0,0,0,.494.364,1.826,1.826,0,0,0,.606.165.936.936,0,0,0,.8-.263,1.593,1.593,0,0,0,.38-.97,1.387,1.387,0,0,0-.219-.993,1.174,1.174,0,0,0-.86-.421.86.86,0,0,0-.573.129.692.692,0,0,0-.158.148.848.848,0,0,1,.373-.041h0a.727.727,0,0,1,.537.331,1.134,1.134,0,0,1,.161.744h0a1.15,1.15,0,0,1-.3.691.769.769,0,0,1-.643.242h0a.78.78,0,0,1-.481-.223h0a.849.849,0,0,1-.168-.235.7.7,0,0,1-.178.165Zm1.758,4.743a5.293,5.293,0,0,1-1.077.216h0a2.2,2.2,0,0,1-1.4-.3,1.348,1.348,0,0,1-.6-1.067h0A1.346,1.346,0,0,1,44.8,66.04a2.213,2.213,0,0,1,1.333-.493h0a5.272,5.272,0,0,1,1.077.051,8.328,8.328,0,0,1,1.212.263l.069.021v.074l.034.451.012.161-.153-.053a5.926,5.926,0,0,0-1.122-.273,5.056,5.056,0,0,0-1.091-.042,1.842,1.842,0,0,0-.985.309.7.7,0,0,0-.292.632h0a.7.7,0,0,0,.382.586,1.834,1.834,0,0,0,1.028.164h0a5.4,5.4,0,0,0,1.091-.212,5.8,5.8,0,0,0,1.055-.419l.143-.075.012.161.033.446v.07l-.063.033a7.489,7.489,0,0,1-1.146.439ZM46.126,65.551ZM44.351,67.185Zm4.8,2.84h0a1.331,1.331,0,0,1-.131,1.091,1.477,1.477,0,0,1-.935.542h0l-2.644.606-.1.023-.023-.1-.1-.432-.023-.1.1-.023,2.644-.606h0a.986.986,0,0,0,.593-.321.677.677,0,0,0,.079-.57h0a.746.746,0,0,0-.309-.469.753.753,0,0,0-.588-.085h0a.693.693,0,0,0-.269.1,1.212,1.212,0,0,0-.242.261h0a1.091,1.091,0,0,1-.19.2.686.686,0,0,1-.215.121l-.109.035-.027-.113-.1-.436-.023-.1.1-.024a.385.385,0,0,0,.137-.065.626.626,0,0,0,.121-.136h0a1.244,1.244,0,0,1,.293-.329.991.991,0,0,1,.4-.164h0a1.2,1.2,0,0,1,.969.175A1.491,1.491,0,0,1,49.149,70.025Zm1.129,5.59a2.047,2.047,0,0,1-.538.337,2.077,2.077,0,0,1-1.264.141,2.457,2.457,0,0,1-1.168-.669h0s-.121-.121-.383-.4c-.075-.079-.141-.145-.2-.2h0a1.093,1.093,0,0,0-.128-.109.65.65,0,0,0-.185-.085.521.521,0,0,0-.183-.016l-.078.007-.029-.072-.173-.413-.047-.112.121-.032a1.045,1.045,0,0,1,.689.069,1.735,1.735,0,0,1,.617.5h0l.364.424h0a1.62,1.62,0,0,0,.62.461c-.025-.048-.048-.1-.074-.164h0a.985.985,0,0,1-.076-.5,1.062,1.062,0,0,1,.121-.364,1.239,1.239,0,0,1-.353-.2,1.034,1.034,0,0,1-.305-.411h0a1.132,1.132,0,0,1,.656-1.559h0a2.014,2.014,0,0,1,.6-.15h0a2.22,2.22,0,0,1,.635.038l.055.011.022.052.168.417.085.2-.212-.065a1.658,1.658,0,0,0-.55-.061,1.68,1.68,0,0,0-.536.13h0a.848.848,0,0,0-.424.331h0a.423.423,0,0,0-.023.392h0a.533.533,0,0,0,.3.3.615.615,0,0,0,.457-.023h0l.349-.147.1-.041.04.1.173.412.041.1-.1.041-.4.169a.57.57,0,0,0-.313.275.461.461,0,0,0,.007.377h0a.448.448,0,0,0,.284.261.669.669,0,0,0,.46-.042,1.664,1.664,0,0,0,.5-.322,1.767,1.767,0,0,0,.363-.485l.1-.2.088.21.191.458.023.055-.034.049a2.989,2.989,0,0,1-.47.521Zm-1.106,3.516a.7.7,0,0,0,.513-.137c.036-.023.07-.047.1-.069l.068-.051.091-.073.063.1.242.377.053.081-.078.059-.087.064a1.4,1.4,0,0,1-.121.081h0a1.134,1.134,0,0,1-.926.166,1.373,1.373,0,0,1-.778-.626h0a1.409,1.409,0,0,1-.242-.941,1.034,1.034,0,0,1,.5-.737h0L50.02,76.5h0a1.676,1.676,0,0,1,1.08-.318,1.238,1.238,0,0,1,.883.618h0a1.482,1.482,0,0,1,.242,1.108,1.436,1.436,0,0,1-.677.9h0a1.342,1.342,0,0,1-.187.1,1.855,1.855,0,0,1-.221.078L51.066,79l-.044-.067-.242-.378-.076-.121.136-.039a2.035,2.035,0,0,0,.2-.072h0a1.092,1.092,0,0,0,.155-.081.994.994,0,0,0,.448-.533.713.713,0,0,0-.105-.6h0a.635.635,0,0,0-.447-.319.969.969,0,0,0-.63.194l-1.549.99h0a.549.549,0,0,0-.269.364.645.645,0,0,0,.121.461h0a.664.664,0,0,0,.4.327Zm1.636,2.2a.578.578,0,0,0,.156.428h0v.006a.618.618,0,0,0,.491.251,1.052,1.052,0,0,0,.614-.293h0l.081-.08.074.086.293.338.073.082-.084.067a1.5,1.5,0,0,1-.99.416,1.32,1.32,0,0,1-.969-.5h0V82.12a1.282,1.282,0,0,1-.349-.885,1.1,1.1,0,0,1,.4-.8h0a.959.959,0,0,1,.493-.242.9.9,0,0,1,.349.022.79.79,0,0,1,.056-.381,1.469,1.469,0,0,1,.423-.55h0a1.528,1.528,0,0,1,1.026-.451,1.3,1.3,0,0,1,.933.514,1.5,1.5,0,0,1,.411,1,1.239,1.239,0,0,1-.464.91,1.854,1.854,0,0,1-.242.183,1.264,1.264,0,0,1-.258.121l-.067.024-.047-.053-.291-.333-.1-.112.137-.056a1.669,1.669,0,0,0,.218-.11,1.512,1.512,0,0,0,.194-.143.816.816,0,0,0,.307-.527.728.728,0,0,0-.2-.543A.641.641,0,0,0,53,79.445a.956.956,0,0,0-.594.286.944.944,0,0,0-.342.485.5.5,0,0,0,.144.429l.07.08-.081.069-.26.23-.08.069-.07-.08a.628.628,0,0,0-.374-.242.485.485,0,0,0-.364.144.646.646,0,0,0-.242.418Zm5.626.65.34.29.055.047-.022.067a7.383,7.383,0,0,1-.494,1.124,5.376,5.376,0,0,1-.606.918h0a2.249,2.249,0,0,1-1.166.78,1.344,1.344,0,0,1-1.2-.32h-.007a1.342,1.342,0,0,1-.492-1.112,2.2,2.2,0,0,1,.583-1.289h0a5.211,5.211,0,0,1,.794-.727,8.011,8.011,0,0,1,1.042-.678l.063-.035.056.047.344.293.121.1-.144.07a5.977,5.977,0,0,0-.985.606,5.039,5.039,0,0,0-.8.744v.006h0a1.823,1.823,0,0,0-.468.914.7.7,0,0,0,.242.651H53.7a.7.7,0,0,0,.677.136A1.846,1.846,0,0,0,55.206,84h0a5.409,5.409,0,0,0,.607-.923,5.864,5.864,0,0,0,.443-1.045l.047-.154.121.1ZM58.2,85.3a.685.685,0,0,0,.437-.319h0a.819.819,0,0,0,.127-.581.71.71,0,0,0-.342-.472h0a.753.753,0,0,0-.557-.1.727.727,0,0,0-.45.335h0a.773.773,0,0,0-.1.576.727.727,0,0,0,.337.458h0a.745.745,0,0,0,.55.1Zm-.521-2.061a1.44,1.44,0,0,1,1.034.225h0a1.422,1.422,0,0,1,.652.827,1.3,1.3,0,0,1-.182,1.046h0l-.957,1.54a1.084,1.084,0,0,1-.646.571,1.2,1.2,0,0,1-.859-.256h0c-.042-.025-.154-.108-.271-.194s-.242-.183-.3-.217h0a1.426,1.426,0,0,0-.285-.133h0a1.805,1.805,0,0,0-.339-.079l-.162-.022.087-.138.236-.379.029-.048h.057a.809.809,0,0,1,.242.032.962.962,0,0,1,.242.108h0a3.135,3.135,0,0,1,.291.236,4.725,4.725,0,0,0,.485.388.492.492,0,0,0,.336.1h0a.385.385,0,0,0,.242-.2v-.006l.485-.786a1.21,1.21,0,0,1-.288-.023,1.53,1.53,0,0,1-.516-.211h0a1.377,1.377,0,0,1-.6-.771h0a1.243,1.243,0,0,1,.154-1.022h0a1.246,1.246,0,0,1,.826-.583Zm2.74,1.665a1.214,1.214,0,0,1,1.044.019,1.48,1.48,0,0,1,.834.775,1.434,1.434,0,0,1-.045,1.124h0a1.28,1.28,0,0,1-.1.187,1.6,1.6,0,0,1-.137.189l-.05.061-.073-.03-.407-.17-.13-.053.087-.11a1.5,1.5,0,0,0,.121-.175,1.308,1.308,0,0,0,.184-.667.641.641,0,0,0-.155-.379h0a.648.648,0,0,0-.136-.135h0a.783.783,0,0,0-.171-.1h0a.606.606,0,0,0-.536,0,.97.97,0,0,0-.4.513l-.75,1.8a.606.606,0,0,0-.062.364.275.275,0,0,0,.178.182.311.311,0,0,0,.242.006.364.364,0,0,0,.181-.2h0l.285-.693.04-.1.1.04.413.173.1.04-.041.1-.33.789a.55.55,0,0,0-.056.211c0,.018,0,.028.012.032A.154.154,0,0,0,60.7,88.7h0a.768.768,0,0,0,.151-.072h0a1.182,1.182,0,0,1,.446-.17.861.861,0,0,1,.462.068h0a.708.708,0,0,1,.408.4.78.78,0,0,1-.033.576h0a.75.75,0,0,1-.041.084.913.913,0,0,1-.047.08l-.05.073-.079-.034-.41-.173-.121-.05.07-.105c.016-.024.029-.047.04-.068l.035-.072h0a.263.263,0,0,0,.028-.162A.112.112,0,0,0,61.486,89h0a.223.223,0,0,0-.1.015,1.937,1.937,0,0,0-.281.109h0a1.491,1.491,0,0,1-.356.114h0a.528.528,0,0,1-.291-.024h0a.485.485,0,0,1-.256-.227.562.562,0,0,1-.057-.182.88.88,0,0,1-.279.058,1.113,1.113,0,0,1-.474-.095h0a.884.884,0,0,1-.477-.445.875.875,0,0,1,.012-.708h0l.76-1.81a1.659,1.659,0,0,1,.727-.9Zm-4.726-37.7c-.1.1-.2.2-.3.314l-.11.121-.067-.153a1.593,1.593,0,0,0-.187-.318,2.156,2.156,0,0,0-.261-.291l-.114-.108.144-.065q.2-.089.385-.193c.091-.051.182-.1.269-.16-.067-.078-.136-.153-.206-.228-.1-.1-.2-.2-.308-.3l-.114-.1.136-.069a2.386,2.386,0,0,0,.31-.187,2.288,2.288,0,0,0,.285-.242l.107-.107.064.136c.063.133.128.261.2.382.05.088.1.177.158.263.082-.07.162-.142.242-.215h0c.107-.1.21-.206.309-.315l.1-.113.069.137a2.349,2.349,0,0,0,.2.318,2.209,2.209,0,0,0,.242.279l.109.107-.138.064c-.133.063-.262.131-.387.2-.093.053-.184.109-.274.165.07.08.141.159.214.234.1.1.206.2.315.3l.121.109-.151.068a1.733,1.733,0,0,0-.321.19h0a2.394,2.394,0,0,0-.3.264l-.108.113-.064-.143c-.059-.131-.121-.261-.193-.388-.051-.091-.1-.181-.159-.268-.08.068-.156.138-.231.212Zm28.261.618a2.417,2.417,0,0,0-.328-.218l-.147-.078.121-.1c.113-.09.221-.184.324-.282.076-.072.149-.147.221-.222a3.1,3.1,0,0,0-.262-.17c-.121-.074-.25-.144-.38-.211l-.148-.074.13-.1a1.768,1.768,0,0,0,.259-.262,2.355,2.355,0,0,0,.216-.327l.075-.136.1.121c.092.113.187.222.286.325.071.075.145.149.221.219.059-.084.115-.17.168-.257.074-.121.145-.242.213-.375l.07-.136.1.121a2.458,2.458,0,0,0,.27.258,2.518,2.518,0,0,0,.31.215l.13.075-.114.1c-.113.095-.219.19-.32.289-.074.072-.145.144-.213.218.087.061.176.121.267.176.121.078.252.152.383.219l.136.072-.115.1a2.33,2.33,0,0,0-.257.268,2.3,2.3,0,0,0-.207.307l-.075.132-.1-.121c-.1-.114-.2-.224-.3-.327-.073-.074-.148-.148-.227-.218q-.087.121-.171.266a4.293,4.293,0,0,0-.208.382l-.074.149-.1-.13a1.66,1.66,0,0,0-.265-.264ZM70.5,88.053c-.015.1-.025.206-.034.308.1-.007.208-.017.313-.03.143-.018.285-.042.427-.072l.162-.034-.046.162a1.617,1.617,0,0,0-.041.364,2.3,2.3,0,0,0,.034.39l.027.154-.154-.034c-.139-.03-.281-.057-.423-.076-.1-.015-.208-.025-.313-.034.007.1.017.2.028.3.017.143.04.287.067.429l.029.149-.15-.025a2.471,2.471,0,0,0-.374-.035,2.319,2.319,0,0,0-.374.028l-.149.022.03-.148c.029-.143.052-.285.07-.426h0c.013-.1.024-.2.032-.3-.105.007-.212.016-.319.028-.148.017-.293.039-.437.065l-.149.028.023-.15a2.429,2.429,0,0,0,.034-.371,2.185,2.185,0,0,0-.027-.364l-.024-.149.149.029c.147.028.294.052.44.07.1.013.207.024.309.032-.007-.107-.018-.211-.032-.315-.018-.142-.042-.286-.073-.429l-.035-.161.161.036a1.723,1.723,0,0,0,.372.041,2.472,2.472,0,0,0,.394-.034l.154-.025-.034.153c-.031.142-.058.284-.078.427Z" transform="translate(-40.03 -34.833)" fill="#fff"/>
  <path id="Path_8" data-name="Path 8" d="M183.869,139.4c.1-.3-.02-.477-.183-.541a.345.345,0,0,0-.092-.019.353.353,0,0,0-.175.029c-.149.066-.248.235-.142.52a.754.754,0,0,0,.146.235,1.172,1.172,0,0,0,.272.217h0a1.022,1.022,0,0,0,.168.077h0a.982.982,0,0,0,.16.039.4.4,0,0,0,.063.008h0a.47.47,0,0,0,.249-.045.357.357,0,0,0,0-.629h-.009a.351.351,0,0,0-.05-.011h0a.576.576,0,0,0-.392.119v-.014h-.006l-.012.008Zm5.328-13.165h.161v.023h-.012a.066.066,0,0,0-.027,0l-.012.015a.217.217,0,0,0,0,.031v.261a.227.227,0,0,0,0,.026.014.014,0,0,0,.012.012h.039v.027H189.2v-.024h.015a.041.041,0,0,0,.023,0s.007,0,.011-.012,0-.012,0-.026v-.295l-.011-.012a.041.041,0,0,0-.023,0H189.2v-.023Zm-.845.673h.161v.023h-.039a.041.041,0,0,0-.011.015.207.207,0,0,0,0,.03v.259a.14.14,0,0,0,0,.027.055.055,0,0,0,.011.015h.039v.023h-.157v-.023h.039l.012-.012v-.3a.275.275,0,0,0,0-.031l-.012-.011h-.039v-.024Zm-.531.007h.022v.012h.256v-.012h.02l.046.117-.027.012a.188.188,0,0,0-.047-.068.117.117,0,0,0-.068-.02H188v.32a.015.015,0,0,0,.008.012.011.011,0,0,0,.011,0,.118.118,0,0,0,.035,0v.023h-.164v-.023a.106.106,0,0,0,.034,0,.02.02,0,0,0,.015-.009.065.065,0,0,0,0-.029v-.291h-.023a.155.155,0,0,0-.049.008.1.1,0,0,0-.038.029.118.118,0,0,0-.031.05l-.027-.012.042-.117Zm-.1-.656h.107l.235.29v-.225a.094.094,0,0,0-.008-.043.042.042,0,0,0-.034-.014h-.012v-.012h.134v.007h-.012a.06.06,0,0,0-.039.014.146.146,0,0,0,0,.043v.329h-.011l-.257-.313v.241c0,.023,0,.039.007.042a.058.058,0,0,0,.035.015h.012v.007h-.134v-.007h.011a.044.044,0,0,0,.035-.015.109.109,0,0,0,.007-.042v-.271a.353.353,0,0,0-.026-.028l-.022-.009h-.027v-.012Zm-.2-.322a.176.176,0,0,1,.134.058.2.2,0,0,1,.053.142.222.222,0,0,1-.053.148.185.185,0,0,1-.137.058v-.019a.107.107,0,0,0,.09-.046.2.2,0,0,0,.041-.141.235.235,0,0,0-.039-.149.117.117,0,0,0-.087-.039v-.019Zm0,.4v-.019a.094.094,0,0,1-.081-.042.2.2,0,0,1-.041-.144.22.22,0,0,1,.038-.142.106.106,0,0,1,.084-.039v-.019a.18.18,0,0,0-.127.05.188.188,0,0,0-.061.149.2.2,0,0,0,.054.148A.171.171,0,0,0,187.523,126.345Zm1.357.676h-.066V127h.058l-.058-.157v-.06l.008-.027h0l.123.32a.142.142,0,0,0,.026.054.052.052,0,0,0,.034.012v.011h-.14v-.011a.059.059,0,0,0,.029-.008.022.022,0,0,0,.008-.015.215.215,0,0,0-.011-.042l-.023-.054Zm-.066,0V127h-.062l.062-.153v-.065l-.117.293a.193.193,0,0,1-.032.054.11.11,0,0,1-.026.012v.011h.109v-.011a.056.056,0,0,1-.033-.008.025.025,0,0,1-.008-.015.174.174,0,0,1,.008-.035l.027-.061Zm.235-.007h.313l.034.1-.022.007a.1.1,0,0,0-.019-.038.085.085,0,0,0-.027-.027.079.079,0,0,0-.031-.012.191.191,0,0,0-.054,0h-.092v.146h.069a.073.073,0,0,0,.039-.008.064.064,0,0,0,.019-.022.139.139,0,0,0,0-.035v-.007h.028v.175h-.028v-.015a.11.11,0,0,0,0-.031.02.02,0,0,0-.013-.014c0-.008-.006-.008-.014-.012h-.1v.157h.089a.176.176,0,0,0,.072-.013.149.149,0,0,0,.049-.038.262.262,0,0,0,.032-.054l.022.008-.042.127h-.326v-.027h.039s.007-.008.007-.012v-.325s0-.008-.012-.008h-.034v-.022Zm-2.09-.088h.31l.038.1-.027.011a.1.1,0,0,0-.018-.041.138.138,0,0,0-.028-.022.132.132,0,0,0-.026-.016h-.149v.146h.069c.019,0,.029,0,.038-.008a.03.03,0,0,0,.019-.022.074.074,0,0,0,0-.035v-.007h.026v.163h-.026v-.015a.049.049,0,0,0,0-.028.034.034,0,0,0-.008-.018c-.007,0-.011-.008-.019-.012h-.1v.153l.008.007h.08a.191.191,0,0,0,.072-.011.117.117,0,0,0,.05-.039.284.284,0,0,0,.031-.053l.027.007-.047.126h-.32v-.022h.034l.012-.012v-.3a.059.059,0,0,0,0-.027s0-.007-.012-.007a.118.118,0,0,0-.031,0v-.022Zm1.6-.711v.134h-.012a.2.2,0,0,0-.019-.06.1.1,0,0,0-.039-.039.124.124,0,0,0-.054-.012.066.066,0,0,0-.053.019.054.054,0,0,0-.018.039.057.057,0,0,0,.011.034.333.333,0,0,0,.088.058l.08.041a.14.14,0,0,1,.031.039.117.117,0,0,1,.012.046.093.093,0,0,1-.035.073.134.134,0,0,1-.092.035h-.034a.122.122,0,0,1-.039-.012l-.038-.007a.014.014,0,0,0-.012,0,.037.037,0,0,1-.008.019h-.011v-.134h.011a.193.193,0,0,0,.024.061.087.087,0,0,0,.038.034.118.118,0,0,0,.062.015.081.081,0,0,0,.056-.019.054.054,0,0,0,.023-.047.07.07,0,0,0-.007-.026c0-.012-.016-.019-.027-.027a.384.384,0,0,0-.062-.039q-.039-.019-.075-.042a.149.149,0,0,1-.035-.038.088.088,0,0,1-.012-.046.086.086,0,0,1,.035-.068.125.125,0,0,1,.087-.032.172.172,0,0,1,.069.016l.023.007h.011a.026.026,0,0,0,.008-.02Zm.432-.214.008.13h-.008a.155.155,0,0,0-.05-.085.129.129,0,0,0-.144-.007.136.136,0,0,0-.046.065.278.278,0,0,0-.019.107.234.234,0,0,0,.019.093.117.117,0,0,0,.046.056.135.135,0,0,0,.076.022.118.118,0,0,0,.065-.019.181.181,0,0,0,.062-.06H189a.172.172,0,0,1-.3.027.19.19,0,0,1-.039-.117.209.209,0,0,1,.092-.183.184.184,0,0,1,.18-.007c.008,0,.013.007.016.007h.015a.051.051,0,0,0,.008-.022Zm-1.709.214.012.134h-.012a.161.161,0,0,0-.046-.088.118.118,0,0,0-.072-.026.106.106,0,0,0-.066.022.133.133,0,0,0-.046.061.449.449,0,0,0-.015.107.235.235,0,0,0,.015.093.117.117,0,0,0,.046.058.127.127,0,0,0,.073.022.135.135,0,0,0,.061-.015.236.236,0,0,0,.061-.065h.008a.216.216,0,0,1-.066.076.144.144,0,0,1-.085.023.156.156,0,0,1-.137-.069.254.254,0,0,1-.038-.127.207.207,0,0,1,.027-.107.173.173,0,0,1,.066-.076.149.149,0,0,1,.09-.027.18.18,0,0,1,.076.02.022.022,0,0,0,.016.007.014.014,0,0,0,.011,0c.008-.007.008-.015.012-.023Zm.069.57h.108l.235.293v-.235a.1.1,0,0,0-.008-.046.047.047,0,0,0-.033-.012h-.013v-.011h.131v.011h-.012a.056.056,0,0,0-.039.015.116.116,0,0,0,0,.042v.329h-.012l-.256-.313v.235c0,.027,0,.042.008.046a.044.044,0,0,0,.034.012h.012v.012h-.135v-.012h.012c.016,0,.031,0,.034-.015a.064.064,0,0,0,.009-.042v-.262a.184.184,0,0,0-.027-.027l-.023-.011a.048.048,0,0,0-.027,0v-.011Zm.883-.833v1.691l.069-.063h0a.875.875,0,0,1,.275-.184h.006a.352.352,0,0,1,.109-.018h.018a.469.469,0,0,1,.235.076h.014l.038.023q.039.027.077.049h.036a.535.535,0,0,0,.177.059.33.33,0,0,0,.117-.006h.009a.378.378,0,0,0,.146-.083v-.333h0v-1.322a.774.774,0,0,1-.235.079.27.27,0,0,1-.235-.074.651.651,0,0,0-.469-.154.683.683,0,0,0-.4.235Zm0,1.748v.165h0a.751.751,0,0,1,.305-.3h.018a.375.375,0,0,1,.077-.02h.076a.575.575,0,0,1,.316.117h0a.629.629,0,0,0,.062.052h0a.394.394,0,0,0,.243.074h.026a.609.609,0,0,0,.326-.169V126h0v-.025l-.1-.07v1.242h0v.012h0v.386h0a.352.352,0,0,1-.272.1h-.059a.793.793,0,0,1-.244-.117.761.761,0,0,0-.117-.069h-.02a.369.369,0,0,0-.257-.011,1.055,1.055,0,0,0-.352.256Zm-.014.2v-.2a.724.724,0,0,0-.365-.251h-.1a.389.389,0,0,0-.052,0h-.143a.863.863,0,0,0-.117.063l-.023.015h0l-.022.013h0l-.011.006h-.028l-.026.012h0l-.031.012h0l-.034.012h-.138a.375.375,0,0,1-.171-.06h-.006v-1.615l-.117.081.022,1.6a.58.58,0,0,0,.205.143h0l.02.007h.146a.524.524,0,0,0,.269-.109h0l.009-.006h.009l.009-.006.008-.007h.009l.008-.006h0l.027-.016h0l.018-.009h0a.4.4,0,0,1,.536.048h0v.006h0l.006.006h0a1.056,1.056,0,0,1,.124.195h0v.016h0v.008Zm0-.255v-1.694a.962.962,0,0,0-.392-.235.418.418,0,0,0-.376.1.565.565,0,0,1-.289.117.511.511,0,0,1-.283-.058V127.5a.448.448,0,0,0,.137.074h.088a.556.556,0,0,0,.317-.106.634.634,0,0,1,.3-.108h.007a.469.469,0,0,1,.128.012l.031.008h.006a.734.734,0,0,1,.327.235Zm-.434-.072a.6.6,0,0,0-.345.127h0l-.009.006h-.009a.643.643,0,0,1-.17.089h-.154a.47.47,0,0,1-.257-.117h0l-.011-.009h-.012v-.006h-.006v-.029l-.015-1.079-.007-.482h-.046v1.6a.619.619,0,0,0,.309.224.469.469,0,0,0,.352-.041.842.842,0,0,0,.127-.082.455.455,0,0,1,.268-.117.288.288,0,0,1,.17.041.486.486,0,0,1,.135.117l.04.049H188.1a.093.093,0,0,0-.088.062.087.087,0,0,0-.006.029.076.076,0,0,0,.008.033.1.1,0,0,0,.086.067h.381a.108.108,0,0,0,.068-.052.091.091,0,0,0,.013-.041.1.1,0,0,0-.016-.047.1.1,0,0,0-.065-.052h-.021l.018-.043a.25.25,0,0,1,.117-.136.364.364,0,0,1,.221-.034.424.424,0,0,1,.248.117.449.449,0,0,0,.225.117.5.5,0,0,0,.262-.033,1.2,1.2,0,0,0,.285-.173v-1.616h-.073v1.58h0a.722.722,0,0,1-.27.161h-.18a.417.417,0,0,1-.147-.065h0a.469.469,0,0,1-.054-.045.542.542,0,0,0-.048-.031h-.007a.5.5,0,0,0-.283-.076h-.208a.452.452,0,0,0-.1.059h-.029v.006h0l-.053.076h.131v.106l-.318-.007v-.107h.117a.878.878,0,0,0-.2.069h0v-.007h0v-.006a.506.506,0,0,0-.17-.156h-.012l-.018-.008-.049-.015H187.8Zm0,0Zm.261.52Zm-.028,1.526H187.9l-.109-.146v-.058a.047.047,0,0,0,.034-.019.063.063,0,0,0,.031-.056.081.081,0,0,0-.023-.062.146.146,0,0,0-.041-.019v-.023a.218.218,0,0,1,.061.008.1.1,0,0,1,.048.034.074.074,0,0,1,.023.057.082.082,0,0,1-.026.061.136.136,0,0,1-.073.034l.085.117a.16.16,0,0,0,.049.049.1.1,0,0,0,.054.016v.011Zm-.222-.146v-.058a.189.189,0,0,1-.053.008h-.016v-.161a.235.235,0,0,1,.046,0h.023v-.023h-.184v.012h.015a.046.046,0,0,1,.035.012.087.087,0,0,1,.007.045v.238c0,.022,0,.039-.007.042s-.019.016-.035.016h-.015v.011h.172V129.6h-.013a.043.043,0,0,1-.034-.013.094.094,0,0,1-.008-.046v-.11h.042l.027.034Zm1.349.646h.161v.027h-.008a.064.064,0,0,0-.027,0l-.011.012v.295a.178.178,0,0,0,0,.026s.007.013.011.013a.093.093,0,0,0,.027,0h.012v.023h-.164v-.023h.015a.058.058,0,0,0,.023,0c.007,0,.012-.009.012-.013v-.32a.011.011,0,0,0-.012-.012.041.041,0,0,0-.023,0h-.015Zm.02-.673h.16v.023h-.039a.056.056,0,0,0-.011.015v.317a.042.042,0,0,0,.011.015h.039v.022h-.16v-.022h.012a.045.045,0,0,0,.026-.008.015.015,0,0,0,.012-.008v-.324l-.012-.012h-.038v-.023Zm-.6.535h.16v.027h-.014a.041.041,0,0,0-.023,0l-.011.012a.091.091,0,0,0,0,.034v.261a.059.059,0,0,0,0,.026l.011.012a.041.041,0,0,0,.023,0h.015v.023h-.16v-.023h.011a.065.065,0,0,0,.027,0l.012-.012v-.325A.018.018,0,0,0,188.6,130a.066.066,0,0,0-.027,0h-.011v-.027Zm.235-.508a.156.156,0,0,1,.066.031.086.086,0,0,1,.027.065.1.1,0,0,1-.019.059.125.125,0,0,1-.055.041.246.246,0,0,1-.09.012v-.022a.11.11,0,0,0,.069-.023.07.07,0,0,0,.026-.057.083.083,0,0,0-.054-.081l-.041-.011v-.024a.117.117,0,0,0,.038-.007.067.067,0,0,0,.034-.031.074.074,0,0,0-.019-.1.105.105,0,0,0-.053-.023v-.022a.206.206,0,0,1,.053.008.117.117,0,0,1,.069.038.088.088,0,0,1,.023.061.073.073,0,0,1-.02.054A.117.117,0,0,1,188.8,129.471Zm-.072.207v-.022h-.015a.2.2,0,0,1-.069-.008v-.164h.085v-.023h-.058a.062.062,0,0,1-.027,0v-.153a.185.185,0,0,1,.053-.008.093.093,0,0,1,.032,0v-.022h-.2v.012h.014a.056.056,0,0,1,.039.011.13.13,0,0,1,.008.05v.256a.107.107,0,0,1-.008.046c-.007.012-.018.015-.039.015h-.014v.012Zm-1.621.442h.019v.012h.257v-.012h.036l.046.117-.026.012a.164.164,0,0,0-.047-.069.128.128,0,0,0-.068-.019.054.054,0,0,0-.02,0h-.007v.333a.035.035,0,0,0,.013.007h.033v.023h-.158V130.5h.031a.032.032,0,0,0,.015-.012.067.067,0,0,0,0-.031v-.3h-.015a.09.09,0,0,0-.053.012.062.062,0,0,0-.039.026.139.139,0,0,0-.032.05l-.026-.012.046-.117Zm.92.257h-.107l-.117-.149v-.054a.07.07,0,0,0,.039-.019.076.076,0,0,0,.031-.058.072.072,0,0,0-.027-.061.118.118,0,0,0-.042-.019V130a.256.256,0,0,1,.061.007.141.141,0,0,1,.053.034.092.092,0,0,1,.019.058.094.094,0,0,1-.022.061.149.149,0,0,1-.076.034l.085.11a.155.155,0,0,0,.049.05.118.118,0,0,0,.053.015v.012Zm-.221-.149v-.054a.161.161,0,0,1-.05.008h-.014v-.169a.227.227,0,0,1,.045,0h.02v-.022h-.183V130h.015a.039.039,0,0,1,.033.012c.008,0,.013.019.013.046v.244a.064.064,0,0,1-.009.042c-.006.012-.018.015-.036.015h-.015v.012h.175v-.007h-.015a.044.044,0,0,1-.034-.012c-.007-.007-.007-.019-.007-.046V130.2h.041Zm-.532-.527h-.065v-.02h.058l-.058-.156v-.062l.007-.026h.012l.117.322a.137.137,0,0,0,.027.049.052.052,0,0,0,.035.014v.012h-.142v-.012a.065.065,0,0,0,.031-.007.033.033,0,0,0,.008-.015.117.117,0,0,0-.012-.041l-.023-.058Zm-.065,0v-.02h-.061l.061-.156v-.062l-.117.291a.287.287,0,0,1-.031.058.1.1,0,0,1-.026.011v.012h.11v-.012c-.02,0-.031,0-.035-.011a.021.021,0,0,1-.007-.015.114.114,0,0,1,.007-.031l.027-.065Zm.844,1.357h.117a.6.6,0,0,0-.289-.3.425.425,0,0,0-.352.038h-.008a.954.954,0,0,0-.117.075.666.666,0,0,1-.085.053h0a.436.436,0,0,1-.253.057.5.5,0,0,1-.3-.153h0V130.8q0-.4-.009-.8l-.009-.754H186.7v1.606a.6.6,0,0,0,.308.223.47.47,0,0,0,.352-.041.838.838,0,0,0,.129-.083.449.449,0,0,1,.262-.117.316.316,0,0,1,.171.043.525.525,0,0,1,.134.117l.041.049h-.045a.09.09,0,0,0-.086.061.073.073,0,0,0,0,.031.1.1,0,0,0,.007.034.094.094,0,0,0,.083.065h.387a.1.1,0,0,0,.065-.047.085.085,0,0,0,.014-.043.118.118,0,0,0-.08-.1l-.02-.007.015-.042a.251.251,0,0,1,.111-.134.4.4,0,0,1,.219-.036.438.438,0,0,1,.248.124.452.452,0,0,0,.229.117.48.48,0,0,0,.261-.034,1.138,1.138,0,0,0,.283-.173v-1.635h-.073V130.8h0a.934.934,0,0,1-.1.077h0a.507.507,0,0,1-.235.094h-.021a.431.431,0,0,1-.325-.136.558.558,0,0,0-.333-.117h-.02a.408.408,0,0,0-.1.026.45.45,0,0,0-.117.07h0l-.009.009h-.006v.006h0a1.054,1.054,0,0,0-.117.144h0v.007h0v.015h.129v.107h-.313v-.106Zm.161-1.941V130.8l.054-.049h0a1.376,1.376,0,0,1,.13-.1h.006a.589.589,0,0,1,.117-.06l.028-.007h.006a.368.368,0,0,1,.181.008h.1c.026.014.052.029.08.048a.716.716,0,0,0,.29.131.326.326,0,0,0,.178-.026h0a.386.386,0,0,0,.086-.059v-.012h0v-.012h0v-.012h0v-.362h0v-1.255a.856.856,0,0,1-.235.077.273.273,0,0,1-.235-.074.634.634,0,0,0-.469-.153.69.69,0,0,0-.4.242Zm0,1.744v.178a1.139,1.139,0,0,1,.145-.195h.006l.011-.009h0l.021-.018h0a.481.481,0,0,1,.1-.06h.007a.469.469,0,0,1,.434.076h.008l.008.006h0a.426.426,0,0,0,.322.134h.032a.622.622,0,0,0,.313-.168v-1.661l-.1-.073v.047h0v.012h0v.013h0v.146h0v.173h0v.013h0v.012h0v.175h0v.012h0v.162h0v.8h0v.012h0v.013h0v.013h0v.045h0a.547.547,0,0,1-.054.041h0a.329.329,0,0,1-.212.041.35.35,0,0,1-.1-.025h-.009a.96.96,0,0,1-.188-.1.611.611,0,0,0-.184-.091h-.235a1.471,1.471,0,0,0-.272.216Zm-.015.189v-.191a.7.7,0,0,0-.364-.25.529.529,0,0,0-.4.079H187.4a.643.643,0,0,1-.2.093h-.018a.426.426,0,0,1-.084.008h-.029a.366.366,0,0,1-.082-.019h-.025a.62.62,0,0,1-.069-.045h-.006v-1.65l-.117.08c0,.265,0,.533.008.8v.8a.513.513,0,0,0,.313.169h.026a.5.5,0,0,0,.31-.112.807.807,0,0,1,.235-.117h.082a.352.352,0,0,1,.165.02.433.433,0,0,1,.135.087h0l.008.009h0a.859.859,0,0,1,.142.2h0v.008h0v.008h0l.012.025Zm0-.248v-1.689a.939.939,0,0,0-.389-.235.418.418,0,0,0-.374.094h0a.624.624,0,0,1-.291.117.521.521,0,0,1-.279-.056v.007h0v1.621a.455.455,0,0,0,.093.059h.054a.4.4,0,0,0,.153,0h0a.643.643,0,0,0,.235-.1.826.826,0,0,1,.093-.052h.021a.5.5,0,0,1,.082-.029h.058a.462.462,0,0,1,.193,0,.7.7,0,0,1,.363.248ZM188.024,131.248Zm-3.682-1.126h-.07V130.1h.061l-.061-.161v-.061l.012-.027h.007l.123.325a.133.133,0,0,0,.027.049.047.047,0,0,0,.034.012v.012h-.137v-.012c.012,0,.023,0,.027-.008a.024.024,0,0,0,.007-.015.145.145,0,0,0-.011-.038Zm-.07,0V130.1h-.061l.061-.157v-.065l-.117.295a.143.143,0,0,1-.031.053.029.029,0,0,1-.027.012v.012h.11v-.012a.08.08,0,0,1-.034-.008.017.017,0,0,1-.008-.015.082.082,0,0,1,.012-.034l.022-.061Zm.731-.046v.133h-.009a.172.172,0,0,0-.021-.06.069.069,0,0,0-.039-.034.125.125,0,0,0-.055-.016.069.069,0,0,0-.048.02.053.053,0,0,0-.024.041.033.033,0,0,0,.015.031.259.259,0,0,0,.088.057.328.328,0,0,1,.076.047.094.094,0,0,1,.034.038.074.074,0,0,1,.012.042.106.106,0,0,1-.039.076.117.117,0,0,1-.092.031h-.033a.127.127,0,0,0-.039-.012.1.1,0,0,0-.039-.007.013.013,0,0,0-.011,0,.031.031,0,0,0,0,.015h-.012v-.129h.012a.253.253,0,0,0,.019.061.171.171,0,0,0,.042.034.152.152,0,0,0,.057.012.1.1,0,0,0,.061-.016.06.06,0,0,0,.023-.045.046.046,0,0,0-.012-.031.062.062,0,0,0-.023-.027l-.066-.034c-.033-.02-.06-.035-.075-.047a.257.257,0,0,1-.031-.034.1.1,0,0,1-.012-.046.1.1,0,0,1,.034-.073.118.118,0,0,1,.083-.031.251.251,0,0,1,.07.015.038.038,0,0,0,.023.007h.009a.03.03,0,0,0,.012-.019Zm-.613-.646a.156.156,0,0,1,.066.031.092.092,0,0,1,.027.068.086.086,0,0,1-.02.057.1.1,0,0,1-.054.039.2.2,0,0,1-.092.015v-.023a.147.147,0,0,0,.07-.022.082.082,0,0,0,.026-.061.1.1,0,0,0-.012-.046.1.1,0,0,0-.042-.035l-.042-.012v-.022a.1.1,0,0,0,.039-.008.069.069,0,0,0,.034-.029.088.088,0,0,0,.012-.042.081.081,0,0,0-.032-.062.1.1,0,0,0-.053-.022v-.023a.1.1,0,0,1,.053.008.127.127,0,0,1,.07.038.1.1,0,0,1,.022.066.068.068,0,0,1-.019.053A.107.107,0,0,1,184.39,129.431Zm-.073.21v-.023H184.3a.44.44,0,0,1-.069-.007v-.169h.083v-.022h-.083v-.157a.234.234,0,0,1,.054-.007h.029v-.023h-.2v.012h.016a.043.043,0,0,1,.038.015.084.084,0,0,1,.008.046v.264a.117.117,0,0,1-.008.046.05.05,0,0,1-.038.015h-.016v.012Zm.359-.176h.31l.038.107-.026.007a.1.1,0,0,0-.019-.038.129.129,0,0,0-.023-.026.056.056,0,0,0-.029-.012.19.19,0,0,0-.058,0h-.093v.146h.069a.1.1,0,0,0,.042-.008.078.078,0,0,0,.014-.022.073.073,0,0,0,0-.035v-.007h.027v.176H184.9v-.047l-.012-.015a.028.028,0,0,0-.019-.011.064.064,0,0,0-.031,0h-.069v.153a.007.007,0,0,0,.008.007h.08a.191.191,0,0,0,.073-.012.32.32,0,0,0,.049-.038.145.145,0,0,0,.031-.054l.027.007-.046.127h-.312v-.027h.035l.012-.015a.147.147,0,0,0,0-.023v-.275a.152.152,0,0,0,0-.022.047.047,0,0,0-.016-.012h-.031v-.027Zm-1.589,1h-.107l-.117-.156v-.059a.107.107,0,0,0,.039-.019.088.088,0,0,0,.029-.064.077.077,0,0,0-.022-.061.1.1,0,0,0-.046-.022v-.023a.276.276,0,0,1,.062.007.14.14,0,0,1,.053.035.08.08,0,0,1,.019.06.107.107,0,0,1-.023.066.138.138,0,0,1-.076.039l.085.117a.408.408,0,0,0,.049.054.186.186,0,0,0,.054.015v.012Zm-.222-.156v-.059a.166.166,0,0,1-.049,0H182.8v-.168a.338.338,0,0,1,.045-.008h.02v-.023a.118.118,0,0,0-.034,0h-.149v.011h.015a.035.035,0,0,1,.034.016c.008,0,.011.022.011.045v.264a.123.123,0,0,1-.006.046.041.041,0,0,1-.039.015h-.015v.012h.175v-.012h-.015a.045.045,0,0,1-.034-.012c-.007-.007-.007-.022-.007-.049v-.117h.041l.023.035Zm.454-1.147h.162v.022h-.039a.016.016,0,0,0-.012.014.1.1,0,0,0,0,.035v.271a.055.055,0,0,0,0,.027c0,.007,0,.011.012.015h.039v.022h-.162v-.023h.012a.05.05,0,0,0,.027-.008.009.009,0,0,0,.008-.011v-.306a.073.073,0,0,0,0-.031.011.011,0,0,0-.008-.011.1.1,0,0,0-.027,0h-.012v-.022Zm-.068.688h.019v.011h.255v-.011h.024l.042.117-.028.012a.136.136,0,0,0-.045-.069.144.144,0,0,0-.069-.019.047.047,0,0,0-.019,0h-.008v.332a.013.013,0,0,0,.011,0,.086.086,0,0,0,.035,0v.023h-.161v-.023h.031a.021.021,0,0,0,.015-.007.077.077,0,0,0,0-.032v-.3h-.015a.14.14,0,0,0-.053.008.086.086,0,0,0-.039.031.189.189,0,0,0-.032.049l-.026-.012.046-.117Zm-.566-.437h.164v.027h-.042l-.011.012v.34l.007.008h.046a.2.2,0,0,0,.069-.012.293.293,0,0,0,.049-.031.3.3,0,0,0,.038-.066l.027.008-.045.134h-.3v-.027h.038s.009,0,.013-.011a.066.066,0,0,0,0-.027v-.283a.089.089,0,0,0,0-.031s0-.007-.013-.012h-.038v-.027Zm1,1.651h.117a1.036,1.036,0,0,0-.076-.124h0v-.007h0v-.006h0v-.006h0l-.014-.016h0l-.025-.026h0a.437.437,0,0,0-.124-.092h-.069a.3.3,0,0,0-.066-.006h-.014a.472.472,0,0,0-.126.026h-.008l-.032.012h-.033a.987.987,0,0,0-.138.082.638.638,0,0,1-.187.1h-.032a.419.419,0,0,1-.108.008.481.481,0,0,1-.082-.015h-.016a.518.518,0,0,1-.117-.059h0l-.009-.008h0a1,1,0,0,1-.076-.069h0v-.022c0-.272-.007-.546-.011-.822q0-.363-.008-.725v-.009h-.05v1.562a.62.62,0,0,0,.31.225.48.48,0,0,0,.352-.042.874.874,0,0,0,.129-.083.451.451,0,0,1,.263-.117.322.322,0,0,1,.171.045.521.521,0,0,1,.133.117l.042.049h-.045a.092.092,0,0,0-.086.062.1.1,0,0,0-.006.029.092.092,0,0,0,.007.034.094.094,0,0,0,.084.066h.387a.117.117,0,0,0,.063-.047.075.075,0,0,0,.014-.043.117.117,0,0,0-.079-.1H184.1l.016-.042a.247.247,0,0,1,.117-.134.375.375,0,0,1,.218-.036.426.426,0,0,1,.249.124.45.45,0,0,0,.225.117.5.5,0,0,0,.263-.036,1.19,1.19,0,0,0,.283-.172v-1.622H185.4V130.8h0v.006h-.006v.006h0a.6.6,0,0,1-.343.168.382.382,0,0,1-.2-.043h-.011a.648.648,0,0,1-.088-.069.533.533,0,0,0-.352-.11h-.155a.363.363,0,0,0-.069.021.438.438,0,0,0-.094.053h0a.868.868,0,0,0-.205.235h.129v.108h-.313v-.107Zm.161-1.941v1.688a1.087,1.087,0,0,1,.352-.25h.006a.4.4,0,0,1,.322.042h.014c.021.013.043.026.066.041a.774.774,0,0,0,.255.124h.093a.318.318,0,0,0,.135-.035h0a.437.437,0,0,0,.055-.042v-.012h0v-.013h0v-.012h0v-.036h0v-1.581a.834.834,0,0,1-.235.077.276.276,0,0,1-.235-.074.643.643,0,0,0-.469-.154.693.693,0,0,0-.4.242Zm0,1.744v.178a.965.965,0,0,1,.2-.246h0a.471.471,0,0,1,.108-.063.387.387,0,0,1,.142-.027h.063a.613.613,0,0,1,.235.1h.007l.009.006h0a.427.427,0,0,0,.306.135h.015a.4.4,0,0,0,.154-.04h.02a.794.794,0,0,0,.143-.107V129.15l-.1-.074v1.184h0v.013h0v.012h0v.012h0v.322h0v.039h0v.012h0v.013h0v.034h0a.39.39,0,0,1-.147.086h-.191a.783.783,0,0,1-.2-.093h0l-.032-.021a.685.685,0,0,0-.165-.087H184.4a.359.359,0,0,0-.217,0l-.039.014h-.018a1.44,1.44,0,0,0-.288.224Zm-.015.189v-.19a.944.944,0,0,0-.168-.157h0l-.022-.015h0a.522.522,0,0,0-.117-.05h-.278a.82.82,0,0,0-.154.077.544.544,0,0,1-.322.108h0a.352.352,0,0,1-.164-.052h-.023v-1.631l-.112.077v.088l.019,1.513h0a.509.509,0,0,0,.315.17h.061a.568.568,0,0,0,.272-.11l.063-.042h.008l.009-.006h0a.528.528,0,0,1,.31-.087h0a.381.381,0,0,1,.089.021.653.653,0,0,1,.313.352Zm0-.246v-1.69a.972.972,0,0,0-.39-.235.408.408,0,0,0-.374.1.611.611,0,0,1-.291.117.524.524,0,0,1-.283-.055v1.628h0a.388.388,0,0,0,.214.081.456.456,0,0,0,.056,0h.019a.538.538,0,0,0,.086-.022h.039l.012-.007h0l.015-.009h.03l.014-.008h0a.621.621,0,0,1,.235-.087h.2a.429.429,0,0,1,.054.022h.018l.013.007h0a.915.915,0,0,1,.2.18Zm.007-1.729Zm-1.484.062Zm1.98-2.207h-.069v-.023h.061l-.061-.157v-.061l.011-.026h.008l.117.32a.16.16,0,0,0,.027.053.039.039,0,0,0,.034.012v.013h-.138v-.013c.013,0,.025,0,.027-.007s.008-.008.008-.016a.229.229,0,0,0-.011-.041l-.02-.053Zm-.069,0v-.023H184.2l.061-.153v-.066l-.117.295a.134.134,0,0,1-.031.053.048.048,0,0,1-.027.012v.013h.11v-.013a.067.067,0,0,1-.034-.007.027.027,0,0,1-.008-.016.081.081,0,0,1,.012-.033l.022-.061Zm.73-.047v.135h-.008a.185.185,0,0,0-.021-.062.069.069,0,0,0-.039-.034.092.092,0,0,0-.055-.015.074.074,0,0,0-.048.019.054.054,0,0,0-.023.042.033.033,0,0,0,.015.031.276.276,0,0,0,.088.058.367.367,0,0,1,.076.046.1.1,0,0,1,.034.034.1.1,0,0,1,.012.046.1.1,0,0,1-.039.076.13.13,0,0,1-.092.031.1.1,0,0,1-.033,0l-.039-.007a.124.124,0,0,0-.039-.012h-.012s0,.012,0,.019h-.012v-.133h.012a.194.194,0,0,0,.019.065.171.171,0,0,0,.042.035.152.152,0,0,0,.057.011.08.08,0,0,0,.061-.019.052.052,0,0,0,.023-.042.055.055,0,0,0-.012-.031.069.069,0,0,0-.023-.027.719.719,0,0,1-.066-.038.459.459,0,0,1-.075-.043.107.107,0,0,1-.031-.038.071.071,0,0,1-.012-.042.093.093,0,0,1,.034-.072.118.118,0,0,1,.083-.032.219.219,0,0,1,.07.016l.024.007h.009a.034.034,0,0,0,.012-.02Zm-.612-.646a.144.144,0,0,1,.066.031.081.081,0,0,1,.027.066.088.088,0,0,1-.02.06.117.117,0,0,1-.054.039.248.248,0,0,1-.092.012v-.02a.177.177,0,0,0,.07-.022.085.085,0,0,0,.026-.061.111.111,0,0,0-.012-.046.092.092,0,0,0-.042-.034.072.072,0,0,0-.042-.012v-.022a.053.053,0,0,0,.039-.009.076.076,0,0,0,.034-.029.084.084,0,0,0,.012-.042.077.077,0,0,0-.032-.061.1.1,0,0,0-.053-.023v-.022a.2.2,0,0,1,.053.007.128.128,0,0,1,.07.039.092.092,0,0,1,.022.061.076.076,0,0,1-.019.057A.117.117,0,0,1,184.382,126.242Zm-.073.207v-.02h-.014a.476.476,0,0,1-.07-.007v-.168h.023a.066.066,0,0,1,.032,0h.029v-.022h-.085v-.156a.2.2,0,0,1,.055-.008.076.076,0,0,1,.029,0v-.022h-.2v.012h.023a.055.055,0,0,1,.038.011.127.127,0,0,1,.008.05v.257a.077.077,0,0,1-.008.042.04.04,0,0,1-.038.019h-.016v.012h.2Zm.359-.171h.31l.038.107-.026.007a.087.087,0,0,0-.019-.038.183.183,0,0,0-.023-.027l-.031-.015h-.149v.144h.069a.075.075,0,0,0,.042-.011.039.039,0,0,0,.014-.024v-.034h.027v.171h-.027v-.042l-.012-.018c-.007,0-.012-.009-.019-.009a.094.094,0,0,0-.031,0h-.069v.151a.008.008,0,0,0,.008.008h.08a.17.17,0,0,0,.073-.012.138.138,0,0,0,.049-.034.235.235,0,0,0,.031-.056l.027.009-.046.117h-.322v-.022h.035s.007,0,.012-.012a.124.124,0,0,0,0-.022v-.275a.188.188,0,0,0,0-.023l-.016-.012h-.031v-.026Zm-1.589,1h-.107l-.117-.156v-.062a.07.07,0,0,0,.039-.019.078.078,0,0,0,.029-.06.092.092,0,0,0-.022-.066.069.069,0,0,0-.046-.019v-.027a.249.249,0,0,1,.062.011.089.089,0,0,1,.053.035.079.079,0,0,1,.019.061.1.1,0,0,1-.023.065.165.165,0,0,1-.076.039l.084.117a.248.248,0,0,0,.049.053.1.1,0,0,0,.054.019v.012Zm-.222-.156v-.062a.16.16,0,0,1-.049.008h-.015v-.173a.345.345,0,0,1,.045-.008h.02v-.027h-.184v.011h.016a.038.038,0,0,1,.034.016c.008,0,.011.019.011.046v.268c0,.022,0,.038-.007.041a.04.04,0,0,1-.038.019h-.016v.012h.176v-.012h-.011a.034.034,0,0,1-.034-.015c-.007,0-.007-.019-.007-.045v-.117h.041l.023.034Zm.454-1.15h.161v.027h-.038a.015.015,0,0,0-.012.015v.332s0,.012.012.012h.038v.027h-.161v-.027h.012a.063.063,0,0,0,.027,0s.008,0,.008-.012v-.308a.059.059,0,0,0,0-.029.013.013,0,0,0-.008-.012.063.063,0,0,0-.027,0h-.012v-.027Zm-.068.688h.019v.015h.255v-.015h.023l.042.117-.028.007a.117.117,0,0,0-.046-.065.125.125,0,0,0-.068-.02h-.019l-.008.008V127a.059.059,0,0,0,0,.027v.012h.046v.022h-.14v-.022h.032c.007,0,.012,0,.015-.013s0-.014,0-.026v-.3h-.015a.188.188,0,0,0-.054.008.169.169,0,0,0-.038.027.453.453,0,0,0-.032.049l-.026-.007.046-.117Zm-.566-.432h.164v.022H182.8l-.011.011v.337s0,.008.007.008h.046a.178.178,0,0,0,.069-.012.155.155,0,0,0,.049-.034.2.2,0,0,0,.038-.062l.027.008-.045.13h-.3v-.022h.038a.062.062,0,0,0,.013-.012.073.073,0,0,0,0-.026v-.286a.089.089,0,0,0,0-.028s0-.007-.013-.011a.1.1,0,0,0-.026,0h-.012v-.022Zm1,1.643h.117c-.014-.027-.029-.053-.043-.076h0v-.007h0v-.007h0v-.007h0a.6.6,0,0,0-.165-.173h0l-.012-.007h-.042a.5.5,0,0,0-.434.1h0l-.009.006h0l-.008.006h-.009a.529.529,0,0,1-.278.11h-.047a.5.5,0,0,1-.329-.176v-.047c-.007-.512-.014-1.021-.019-1.534h-.051v1.608a.627.627,0,0,0,.312.224.469.469,0,0,0,.352-.04.977.977,0,0,0,.129-.085.459.459,0,0,1,.263-.117.294.294,0,0,1,.17.041.5.5,0,0,1,.134.117l.04.05H183.7a.09.09,0,0,0-.086.062.07.07,0,0,0-.006.029.084.084,0,0,0,.007.033.094.094,0,0,0,.085.066h.386a.1.1,0,0,0,.066-.049.08.08,0,0,0,.013-.042.117.117,0,0,0-.079-.1h-.02l.015-.043a.235.235,0,0,1,.112-.136.376.376,0,0,1,.218-.034.422.422,0,0,1,.251.117.448.448,0,0,0,.223.117.486.486,0,0,0,.263-.033,1.144,1.144,0,0,0,.283-.171v-1.639h-.073v1.58h0a.64.64,0,0,1-.305.17h-.063a.444.444,0,0,1-.311-.135.879.879,0,0,0-.117-.067h-.181a.4.4,0,0,0-.124.016h-.042a.479.479,0,0,0-.11.076h0a1.061,1.061,0,0,0-.136.173h.129v.106h-.313v-.108Zm.161-1.941v1.693l.009-.009h.018V127.6h.006l.006-.006h.006a.874.874,0,0,1,.264-.177h.018a.446.446,0,0,1,.4.094.876.876,0,0,0,.082.052h.008l.009.006h0a.536.536,0,0,0,.185.063.328.328,0,0,0,.235-.053h0a.32.32,0,0,0,.034-.026v-.013h0v-.012h0v-.012h0V125.9a.775.775,0,0,1-.235.081.272.272,0,0,1-.235-.074.643.643,0,0,0-.469-.154.679.679,0,0,0-.4.235Zm0,1.749v.177a.808.808,0,0,1,.293-.3h0l.012-.006h.006a.469.469,0,0,1,.452.088h0a.543.543,0,0,0,.153.1h.006a.373.373,0,0,0,.16.025.574.574,0,0,0,.344-.169v-1.63l-.1-.073v1.252h0v.013h0v.012h0v.012h0v.283h0v.012h0v.013h0v.013h0v.034h-.006a.352.352,0,0,1-.289.1l-.035-.006h-.019a.8.8,0,0,1-.235-.117.728.728,0,0,0-.14-.076h-.019a.364.364,0,0,0-.244,0,1.036,1.036,0,0,0-.359.256Zm-.015.189v-.2h0a.69.69,0,0,0-.352-.235.521.521,0,0,0-.369.063h0l-.05.031a.678.678,0,0,1-.235.1h-.089a.405.405,0,0,1-.235-.1h-.006v-1.641l-.112.08v.1l.019,1.486v.016a.529.529,0,0,0,.259.161h.009a.4.4,0,0,0,.05.006.419.419,0,0,0,.2-.038h.012a.964.964,0,0,0,.082-.053h0a.72.72,0,0,1,.3-.135h.022a.336.336,0,0,1,.165.021.655.655,0,0,1,.313.352Zm0-.248v-1.689a.939.939,0,0,0-.39-.228.412.412,0,0,0-.374.1.592.592,0,0,1-.291.117.5.5,0,0,1-.283-.06v1.634h0a.379.379,0,0,0,.214.08.536.536,0,0,0,.306-.1h.021a.614.614,0,0,1,.288-.1h.008a.413.413,0,0,1,.117.011.525.525,0,0,1,.117.042h0a.708.708,0,0,1,.092.059h.006l.011.011h0l.011.012h0Zm-.173.469Zm.669-4.214h-.069v-.022h.061l-.061-.157v-.061l.012-.026h.007l.117.324a.2.2,0,0,0,.028.049.041.041,0,0,0,.033.013V124h-.136v-.011a.045.045,0,0,0,.026-.008.024.024,0,0,0,.007-.015.107.107,0,0,0-.011-.039l-.019-.058Zm-.069,0v-.022h-.061l.061-.153v-.066l-.117.295c-.013.027-.02.046-.032.053s-.012.013-.026.013V124h.11v-.011a.076.076,0,0,1-.034-.008.028.028,0,0,1-.008-.015.081.081,0,0,1,.012-.035l.022-.061Zm.73-.045v.133h-.008a.206.206,0,0,0-.019-.061.109.109,0,0,0-.042-.034.117.117,0,0,0-.054-.016.073.073,0,0,0-.049.02.053.053,0,0,0-.022.042.033.033,0,0,0,.015.03.282.282,0,0,0,.088.058.32.32,0,0,1,.076.046.132.132,0,0,1,.034.034.1.1,0,0,1,.012.047.108.108,0,0,1-.039.076.138.138,0,0,1-.092.029h-.034a.118.118,0,0,0-.039-.011.136.136,0,0,0-.034-.012.019.019,0,0,0-.015.008.035.035,0,0,0,0,.014h-.012V124.1h.012a.2.2,0,0,0,.019.066.221.221,0,0,0,.042.034.138.138,0,0,0,.056.012.076.076,0,0,0,.061-.019.053.053,0,0,0,.025-.042.049.049,0,0,0-.013-.031.067.067,0,0,0-.022-.027l-.066-.034a.441.441,0,0,1-.072-.047.139.139,0,0,1-.035-.034.108.108,0,0,1-.011-.046.1.1,0,0,1,.034-.073.123.123,0,0,1,.083-.029.257.257,0,0,1,.07.014.035.035,0,0,0,.022.007h.015s0-.007.007-.019Zm-.612-.647a.138.138,0,0,1,.065.031.1.1,0,0,1,.027.069.088.088,0,0,1-.019.058.1.1,0,0,1-.05.038.272.272,0,0,1-.1.015v-.022a.171.171,0,0,0,.069-.023.08.08,0,0,0,.026-.061.108.108,0,0,0-.011-.046.1.1,0,0,0-.042-.035.136.136,0,0,1-.042-.012v-.022a.2.2,0,0,0,.039-.008.1.1,0,0,0,.034-.029.084.084,0,0,0,.012-.042.077.077,0,0,0-.032-.061.1.1,0,0,0-.053-.024v-.022a.262.262,0,0,1,.053.007.128.128,0,0,1,.07.039.1.1,0,0,1,.022.065.089.089,0,0,1-.015.054A.175.175,0,0,1,184.367,123.18Zm-.073.21v-.022h-.015a.446.446,0,0,1-.068-.008v-.169h.083v-.022h-.073v-.156a.178.178,0,0,1,.053-.008h.031v-.022h-.2v.012h.015a.05.05,0,0,1,.034.011.127.127,0,0,1,.008.05v.263a.108.108,0,0,1-.008.046.047.047,0,0,1-.034.015h-.015v.012h.2Zm.359-.176h.31l.039.107-.027.008a.1.1,0,0,0-.02-.038.185.185,0,0,0-.023-.027.049.049,0,0,0-.029-.012.184.184,0,0,0-.057,0h-.092v.146h.081a.067.067,0,0,0,.038-.011.054.054,0,0,0,.016-.02.1.1,0,0,0,0-.038h.026v.173h-.026v-.042a.034.034,0,0,0-.013-.015c-.007-.007-.011-.011-.019-.011h-.1v.153s0,.008.007.008h.081a.15.15,0,0,0,.076-.015.209.209,0,0,0,.046-.034.165.165,0,0,0,.03-.058l.027.011-.046.117h-.322v-.022h.035a.065.065,0,0,0,.011-.016.123.123,0,0,0,0-.022v-.275a.155.155,0,0,0,0-.023.033.033,0,0,0-.015-.012h-.031v-.027Zm-1.58,1h-.117l-.117-.156V124a.3.3,0,0,0,.039-.02.087.087,0,0,0,.031-.065.081.081,0,0,0-.022-.061.067.067,0,0,0-.047-.022v-.023a.249.249,0,0,1,.062.008.082.082,0,0,1,.053.034.083.083,0,0,1,.019.061.094.094,0,0,1-.022.065.132.132,0,0,1-.076.039l.085.117a.277.277,0,0,0,.049.053.224.224,0,0,0,.054.016v.011Zm-.223-.156V124a.213.213,0,0,1-.049,0h-.015v-.168a.321.321,0,0,1,.046-.008h.019V123.8a.119.119,0,0,0-.034,0h-.154v.012h.015a.039.039,0,0,1,.035.015c.007,0,.011.019.011.045v.264a.117.117,0,0,1-.007.046.042.042,0,0,1-.039.016h-.015v.011h.176v-.011h-.014a.047.047,0,0,1-.034-.012c-.008-.008-.008-.023-.008-.05v-.117h.042l.022.034Zm.455-1.15h.161v.026h-.039c-.007,0-.012.009-.012.016a.1.1,0,0,0,0,.034v.272a.072.072,0,0,0,0,.026c0,.008,0,.012.012.012h.039v.033h-.161V123.3h.012a.063.063,0,0,0,.027,0s.007,0,.007-.012v-.305a.052.052,0,0,0,0-.031.029.029,0,0,0-.007-.013.064.064,0,0,0-.027,0h-.012v-.026Zm-.069.688h.02v.015h.256v-.015h.023l.042.117-.027.008a.145.145,0,0,0-.046-.065.13.13,0,0,0-.069-.02h-.026v.332a.013.013,0,0,0,.012,0,.089.089,0,0,0,.034,0v.022h-.148v-.022h.031a.017.017,0,0,0,.016-.008.07.07,0,0,0,0-.03v-.3h-.016a.177.177,0,0,0-.053.008.254.254,0,0,0-.039.027c-.012.015-.019.03-.03.049l-.027-.008.046-.117Zm-.565-.432h.163v.022h-.041l-.012.011v.34l.008.008h.045a.17.17,0,0,0,.069-.012.182.182,0,0,0,.05-.034.251.251,0,0,0,.038-.062l.027.008-.046.13h-.3v-.014h.038l.012-.012V123.2s0-.008-.008-.011a.094.094,0,0,0-.026,0h-.015v-.022Zm1,1.643h.117v-.008h0v-.007h0v-.008h0v-.007h0l-.008-.015h0v-.007h0v-.007h0v-.007h0v-.007h0v-.007h0v-.007h0v-.007h0V124.7h0a.5.5,0,0,0-.225-.2h-.038a.36.36,0,0,0-.123,0h-.084l-.045.009h0l-.022.007h-.015a.9.9,0,0,0-.21.117.6.6,0,0,1-.094.056h0l-.015.006h-.047a.433.433,0,0,1-.077.008h-.067a.528.528,0,0,1-.282-.167h-.006v-.025l-.019-1.555h-.046v1.606a.61.61,0,0,0,.306.224.48.48,0,0,0,.352-.041.891.891,0,0,0,.128-.083.456.456,0,0,1,.263-.117.293.293,0,0,1,.171.042.554.554,0,0,1,.134.117l.042.05h-.045a.093.093,0,0,0-.086.062.074.074,0,0,0-.006.031.083.083,0,0,0,.007.033.093.093,0,0,0,.085.066h.385a.1.1,0,0,0,.066-.047.07.07,0,0,0,.013-.042.117.117,0,0,0-.013-.048.124.124,0,0,0-.066-.054h-.02l.016-.043a.242.242,0,0,1,.111-.134.373.373,0,0,1,.217-.035.439.439,0,0,1,.251.117.455.455,0,0,0,.224.117.486.486,0,0,0,.262-.036,1.159,1.159,0,0,0,.284-.173V122.98h-.074v1.576h0a.8.8,0,0,1-.2.135h-.006a.411.411,0,0,1-.147.038.433.433,0,0,1-.326-.136.516.516,0,0,0-.379-.106h-.012a.38.38,0,0,0-.062.02l-.041.019h0a.753.753,0,0,0-.244.246h0l-.013.021h.127v.106l-.312-.007v-.107Zm.16-1.936v1.687a1.22,1.22,0,0,1,.319-.235h.018l.022-.008a.267.267,0,0,1,.05-.013h.034a.483.483,0,0,1,.32.107c.023.015.046.031.069.043h.008a.566.566,0,0,0,.209.076.342.342,0,0,0,.277-.088v-1.659a.833.833,0,0,1-.235.077.275.275,0,0,1-.235-.074.627.627,0,0,0-.469-.151.681.681,0,0,0-.4.242Zm0,1.743v.178a.749.749,0,0,1,.33-.326.394.394,0,0,1,.293,0h0l.015.006h.1l.016.009h0c.011.007.022.013.033.021h0a.488.488,0,0,0,.224.128h.015a.328.328,0,0,0,.083,0,.594.594,0,0,0,.345-.171V122.9l-.1-.074v.432h0v.013h0v.149h0v.012h0v.025h0v1.016h0l-.04.032h0a.331.331,0,0,1-.235.058.7.7,0,0,1-.293-.129.493.493,0,0,0-.305-.107h-.023a.4.4,0,0,0-.074.016,1.1,1.1,0,0,0-.387.269Zm-.015.187v-.183a.7.7,0,0,0-.364-.25.428.428,0,0,0-.177,0h-.007a.667.667,0,0,0-.242.1.832.832,0,0,1-.1.057h-.006a.422.422,0,0,1-.187.035.4.4,0,0,1-.235-.1h-.006v-.021h0v-1.609l-.112.077c0,.264.007.531.009.8s.006.54.009.809a.518.518,0,0,0,.3.168h.02a.517.517,0,0,0,.329-.11.788.788,0,0,1,.258-.129h0a.352.352,0,0,1,.187.018.448.448,0,0,1,.17.124v.006h0l.009.012h0v.006h0v.006h0v.006h0v.007l.009.012h0a1.2,1.2,0,0,1,.1.161Zm0-.246v-1.68a.95.95,0,0,0-.389-.235.407.407,0,0,0-.374.1h0a.619.619,0,0,1-.292.117.515.515,0,0,1-.283-.056v1.628a.613.613,0,0,0,.068.045h.082a.318.318,0,0,0,.06.007.483.483,0,0,0,.243-.061h0c.023-.013.048-.027.074-.043a.6.6,0,0,1,.352-.11h.019a.4.4,0,0,1,.063.009.467.467,0,0,1,.1.036h0a.767.767,0,0,1,.205.16h0l.039.042Zm-.171.454Zm3.89-1.408h.119l.117.313.11-.313H188v.022h-.033a.009.009,0,0,0-.009.011.041.041,0,0,0,0,.023v.3l.013.012H188v.022h-.148v-.022h.012a.038.038,0,0,0,.022,0,.009.009,0,0,0,.008-.008s.007-.008.007-.012v-.309l-.126.352h-.027l-.13-.352v.313l.012.012h.039v.022h-.135v-.022h.026l.016-.012v-.295a.163.163,0,0,0,0-.027c0-.007-.008-.011-.012-.011h-.03v-.022Zm.8-.019h.16v.022h-.019a.032.032,0,0,0-.024.008.013.013,0,0,0-.012.012.087.087,0,0,0,0,.034v.271a.081.081,0,0,0,0,.031.013.013,0,0,0,.008.012c.008,0,.015,0,.027,0h.011v.022h-.16v-.022h.039c.007,0,.011-.008.011-.012a.071.071,0,0,0,0-.031v-.275a.094.094,0,0,0,0-.035s0-.007-.011-.012h-.039v-.022Zm.913-.513a.135.135,0,0,1,.049.008.154.154,0,0,1,.088.068.2.2,0,0,1,.039.123.228.228,0,0,1-.015.092.208.208,0,0,1-.05.065.15.15,0,0,1-.061.031.289.289,0,0,1-.049.008v-.035h0a.135.135,0,0,0,.042-.012.139.139,0,0,0,.039-.029.192.192,0,0,0,.026-.054.363.363,0,0,0,.008-.068.335.335,0,0,0-.008-.066.224.224,0,0,0-.031-.054.117.117,0,0,0-.08-.046v-.031Zm-.222.02h.034a.011.011,0,0,1,.013.012v.32s0,.007-.009.012a.018.018,0,0,1-.014,0h-.023v.022h.222v-.035a.166.166,0,0,1-.035,0h-.083v-.327h.119v-.031a.583.583,0,0,0-.085,0h-.137v.023Zm-.012.539.008.133h-.008a.183.183,0,0,0-.046-.087.117.117,0,0,0-.073-.023.107.107,0,0,0-.065.019.117.117,0,0,0-.042.061.325.325,0,0,0-.019.108.352.352,0,0,0,.015.092.141.141,0,0,0,.118.081.153.153,0,0,0,.061-.016.25.25,0,0,0,.058-.065h.007a.189.189,0,0,1-.061.077.171.171,0,0,1-.222-.047.242.242,0,0,1-.033-.126.248.248,0,0,1,.022-.108.178.178,0,0,1,.065-.075.148.148,0,0,1,.092-.027.143.143,0,0,1,.076.022.026.026,0,0,0,.015,0,.013.013,0,0,0,.012,0,.079.079,0,0,0,.012-.022Zm-1.1-.73.008.134h-.008a.171.171,0,0,0-.045-.088.117.117,0,0,0-.073-.026.109.109,0,0,0-.065.021.118.118,0,0,0-.043.062.3.3,0,0,0-.019.107.354.354,0,0,0,.015.092.118.118,0,0,0,.05.058.107.107,0,0,0,.068.023.157.157,0,0,0,.062-.016.175.175,0,0,0,.056-.065h.008a.2.2,0,0,1-.061.077.157.157,0,0,1-.084.022.162.162,0,0,1-.137-.069.235.235,0,0,1-.034-.126.227.227,0,0,1,.023-.107.173.173,0,0,1,.065-.076.144.144,0,0,1,.092-.027.168.168,0,0,1,.076.02.019.019,0,0,0,.015.007.013.013,0,0,0,.011,0,.148.148,0,0,0,.012-.023Zm1.434,1.181h-.069v-.02h.061l-.061-.156v-.065l.012-.027h0l.126.325a.106.106,0,0,0,.027.049.071.071,0,0,0,.029.015v.008h-.136V124.2c.015,0,.022,0,.026-.007a.02.02,0,0,0,.009-.02c0-.007-.006-.019-.009-.038l-.022-.058Zm-.069,0v-.02h-.061l.061-.156v-.065l-.117.293a.2.2,0,0,1-.027.058.065.065,0,0,1-.03.012v.008h.11V124.2c-.015,0-.027,0-.031-.012s-.007-.007-.007-.015a.075.075,0,0,1,.007-.034l.023-.061Zm-.572-.928h-.069v-.022h.069l-.061-.157V122.9l.008-.026h.011l.117.325a.315.315,0,0,0,.027.049.046.046,0,0,0,.035.012v.012h-.137v-.012a.043.043,0,0,0,.031-.008.019.019,0,0,0,.007-.015.1.1,0,0,0-.011-.038l-.019-.058Zm-.069,0v-.022h-.061l.061-.154V122.9l-.117.295a.182.182,0,0,1-.031.054c0,.008-.011.012-.027.012v.012h.111v-.012c-.019,0-.031,0-.034-.008a.022.022,0,0,1-.008-.015.138.138,0,0,1,.008-.034l.026-.061Zm-1.376.2h-.069v-.021h.061l-.058-.156h0V123.1l.012-.027h.012l.117.325a.116.116,0,0,0,.026.049.07.07,0,0,0,.035.015v.007h-.142v-.007l.03-.007c0-.008.008-.012.008-.02a.117.117,0,0,0-.012-.038l-.022-.057Zm-.069,0v-.021h-.057l.057-.156V123.1l-.11.295a.309.309,0,0,1-.032.056.059.059,0,0,1-.029.012v.007h.117v-.007a.066.066,0,0,1-.034-.012.02.02,0,0,1-.008-.015.261.261,0,0,1,.008-.034l.022-.061Zm-.176.4h.31l.038.107-.026.008a.157.157,0,0,0-.02-.042l-.023-.023-.029-.015h-.149v.149h.073a.065.065,0,0,0,.038-.012c.008,0,.012-.012.016-.024s0-.014,0-.034h.026v.171h-.026v-.042c0-.007-.008-.011-.012-.019s-.012-.007-.019-.007h-.1v.153s0,.008.007.008h.081a.131.131,0,0,0,.117-.046.2.2,0,0,0,.031-.057l.027.012-.046.117h-.322v-.023h.012a.05.05,0,0,0,.022,0s.008,0,.012-.013a.079.079,0,0,0,0-.022v-.275a.128.128,0,0,0,0-.023.062.062,0,0,0-.015-.012h-.031v-.026Zm1.036,1.047h.117a.68.68,0,0,0-.235-.276h-.006a.331.331,0,0,0-.045-.016.506.506,0,0,0-.481.117c-.015.012-.031.021-.046.032h0a.454.454,0,0,1-.275.076.351.351,0,0,1-.1-.02h0a.378.378,0,0,1-.046-.019h0a.625.625,0,0,1-.184-.137h0v-.023l-.022-1.556h-.047v1.6a.614.614,0,0,0,.309.225.48.48,0,0,0,.352-.042.762.762,0,0,0,.127-.083.449.449,0,0,1,.264-.117h0a.305.305,0,0,1,.169.043.5.5,0,0,1,.135.117l.042.05h-.045a.091.091,0,0,0-.087.061.072.072,0,0,0,0,.031h0a.091.091,0,0,0,.007.033.094.094,0,0,0,.086.067h.383a.118.118,0,0,0,.067-.047.079.079,0,0,0,.013-.042.117.117,0,0,0-.081-.1h-.021l.018-.042a.264.264,0,0,1,.117-.134.384.384,0,0,1,.221-.035.42.42,0,0,1,.249.124.458.458,0,0,0,.225.117.489.489,0,0,0,.262-.036,1.223,1.223,0,0,0,.285-.173v-1.62h-.074v1.581a.63.63,0,0,1-.335.176h-.148a.489.489,0,0,1-.188-.117h0l-.033-.021h0l-.016-.009h-.007l-.031-.018h-.022l-.031-.013h-.007l-.015-.006h-.122a.386.386,0,0,0-.168.027.488.488,0,0,0-.141.09h0a.966.966,0,0,0-.157.195h.128v.107l-.317-.006v-.108Zm.164-1.938v1.688c.053-.049.1-.094.15-.133h.029l.011-.007h0a.53.53,0,0,1,.106-.049l.052-.013h.012a.483.483,0,0,1,.352.1h0a.68.68,0,0,0,.29.129.335.335,0,0,0,.265-.081h0v-1.729a.875.875,0,0,1-.235.077.276.276,0,0,1-.235-.074.642.642,0,0,0-.469-.153.685.685,0,0,0-.4.235Zm0,1.744v.177a.749.749,0,0,1,.33-.324.414.414,0,0,1,.338.016h0l.015.007h0a.688.688,0,0,1,.1.06h0a.442.442,0,0,0,.168.087h.026a.429.429,0,0,0,.077,0h.047a.57.57,0,0,0,.222-.1h.012l.011-.009h.006l.012-.009h0v-1.588h0v-.023l-.1-.074v1.56h0v.012h0v.012h0v.013h0v.013h0v.013h0v.02h0a.384.384,0,0,1-.131.08h-.036a.377.377,0,0,1-.089.007h-.036a.507.507,0,0,1-.141-.046h0l-.087-.053h0a.691.691,0,0,0-.161-.085h-.027a.368.368,0,0,0-.211,0l-.034.013h-.006a1.209,1.209,0,0,0-.312.235h0l-.006.006Zm-.015.188v-.189a1,1,0,0,0-.117-.117h0a.6.6,0,0,0-.2-.117h-.036a.5.5,0,0,0-.32.042h-.006q-.047.024-.092.052a.725.725,0,0,1-.2.093h-.061a.418.418,0,0,1-.066,0,.351.351,0,0,1-.061-.008h-.072l-.011-.006h0c-.018-.012-.035-.023-.053-.038h-.006v-1.68l-.117.077v.016h0v.026l.016,1.408v.15a.639.639,0,0,0,.164.126H187a.362.362,0,0,0,.1.022.5.5,0,0,0,.325-.109h0a.778.778,0,0,1,.259-.128h.052a.352.352,0,0,1,.174.02.656.656,0,0,1,.316.346Zm0-.246v-1.683a.973.973,0,0,0-.392-.235.412.412,0,0,0-.374.1h0a.6.6,0,0,1-.288.117.512.512,0,0,1-.283-.056v1.629a.394.394,0,0,0,.225.09.407.407,0,0,0,.083,0h.05a.722.722,0,0,0,.183-.089.727.727,0,0,1,.19-.089h0l.027-.007h.189l.025.006a.552.552,0,0,1,.214.106h0a1,1,0,0,1,.13.126Zm-.173.447Zm-4.337,7.571v.007l-.067-.1-.293.252.285.4.14.2.3-.235-.367-.518v-.007Zm-.343,1.8.345-.235h0l.107-.073h0l.177.241-.451.342.246.336.444-.315h0l.177.229-.428.345.259.361.735-.576h0l.08.11.209-.163v.079l-.173.135h0l.055.077.117-.09v.08l-.065.056h0l.05.07.027-.021h0l.045-.035v.079l-.035.028h0l.045.063.035-.027h0l.169-.131v.079l-.167.13h0l.046.063.117-.093v.079l-.083.065h0l.117.169.319.444-1.151,1.621-.279.4a.427.427,0,0,0-.225.021h0l-.021-.013h-.014a.273.273,0,0,0-.218.319h0l-.128-.051h-.007a1.02,1.02,0,0,0-.135-.039h0a.859.859,0,0,0-.13-.016.6.6,0,0,0-.14.012.628.628,0,0,0-.36.229h0a.283.283,0,0,0-.163-.149.364.364,0,0,0-.068-.016h-.025a.271.271,0,0,0-.272.269.276.276,0,0,0,.185.258.293.293,0,0,0,.086.018h.011a.217.217,0,0,0,.047,0h0c-.076.27.05.5.494.815h-.034a.27.27,0,0,0-.087.527.273.273,0,0,0,.089.018h0a.335.335,0,0,0,.1-.016.268.268,0,0,0,.185-.254.284.284,0,0,0-.026-.117h.007a1.792,1.792,0,0,0,.359.193h.008a.873.873,0,0,0,.227.055h.006a.7.7,0,0,0,.29-.042h0a.277.277,0,0,0,.182.214.363.363,0,0,0,.068.018h.026a.269.269,0,0,0,.269-.27.272.272,0,0,0-.182-.257l-.033-.011a.14.14,0,0,0,.019-.034.656.656,0,0,0-.1-.8c-.021-.021-.058-.067-.08-.085a.718.718,0,0,0,.08-.025.267.267,0,0,0,.135-.324l-.029-.023a.256.256,0,0,0-.061-.208l-.025-.026.068-.1.45-.622h0l.045-.062h0l.047-.065h0l.169-.235h0l.573-.793h0v-.649h0l-.367-.52-.205.162V135.5l.169-.133-.047-.067-.117.1v-.079l.086-.068-.047-.067-.039.032v-.079h0l-.049-.069-.117.1v-.08l.083-.066-.056-.08-.027.021h0l-.047.036v-.077l.039-.031-.039-.053h0l-.045-.063h0l-1.166-1.643-.3.235h0l.088.123-.752.567.216.292Zm1.959.768v.079l-.045.036v-.08Zm0-.2V135l-.045.035v-.079Zm.047.358v.079l-.047.036v-.079Zm0-.192v.08l-.047.035v-.079Zm.169.061-.169.131v.079l.169-.131Zm7.773,4.318a.234.234,0,0,0,.04-.088.889.889,0,0,0,.034-.192.764.764,0,0,1,.019.291.215.215,0,0,0,.053.211c.025.061.077.156-.022.1-.029-.069-.055-.117-.1-.089a1.464,1.464,0,0,0,.133.509,1.161,1.161,0,0,1,.117-.04c.123-.036.246-.068.371-.1l.251-.048.164-.024a4.354,4.354,0,0,1,.446-.036h.016a3.626,3.626,0,0,1,.462.02,1.147,1.147,0,0,1,.16.02c.1.016.211.032.319.06s.2.048.3.08c.06.016.123.04.183.06.04-.112.072-.223.1-.336.015-.063.032-.13.048-.195a2.944,2.944,0,0,1,.273-.822.947.947,0,0,0-.322.138,1.293,1.293,0,0,0-.18.144l-.027.023-.073.06v-.045h0v-.008h0v-.127a.163.163,0,0,0-.008-.062.694.694,0,0,0-.036-.117.909.909,0,0,0-.148-.251,1.027,1.027,0,0,0-.117.04.765.765,0,0,0-.191.117.608.608,0,0,0-.128.151,1.162,1.162,0,0,0-.065.117l-.048.1-.023-.111-.015-.088a.994.994,0,0,0-.127-.284.881.881,0,0,0-.285-.266.3.3,0,0,0-.05.043,1.574,1.574,0,0,0-.242.272.986.986,0,0,0-.13.319l-.033.148-.043-.143a.022.022,0,0,0-.007-.016.939.939,0,0,0-.164-.312v-.007a.956.956,0,0,0-.248-.208c-.021-.012-.041-.02-.06-.032l-.061.063-.063.088a.973.973,0,0,0-.187.419v.008l-.016.1-.056-.076a1.146,1.146,0,0,0-.218-.235.486.486,0,0,0-.147-.075,1.92,1.92,0,0,1,.158.689v.038Zm.205-.3a.243.243,0,0,1-.047-.069c-.016.016-.027.035-.013.088a.444.444,0,0,1,.048.043.118.118,0,0,0,.012.056v-.117Zm.067.117v-.113a.069.069,0,0,1,.062.015c.022.023.046.042.065.065.022.051,0,.059-.032.059-.022-.039-.049-.066-.1-.036Zm.305-.117v.153a.313.313,0,0,1-.065-.217Zm-.305.012a.165.165,0,0,0-.035.011.258.258,0,0,1-.032-.022v.117c.013.02.034.022.067,0v-.113Zm.42.5a.563.563,0,0,0,.052-.513.182.182,0,0,1,.028-.156l-.08.023c-.011-.049-.019-.1-.029-.142l-.019.046v.5a.431.431,0,0,1,.019.049.117.117,0,0,1-.013.117v.115a.132.132,0,0,0,.048-.039Zm.2-.738a.024.024,0,0,0,0-.018c-.007-.023-.02-.039-.031-.035s-.012.022,0,.046.02.039.031.035h0a.091.091,0,0,0,0,.036v-.073Zm-.252.777v-.1l-.016.033C193.918,139.7,193.925,139.722,193.942,139.719Zm-.067-.4v-.153l.059.058a.49.49,0,0,1,.008-.283v.5a.631.631,0,0,0-.051-.1Zm.339-.36v.081a.054.054,0,0,1-.02-.029v-.057h0a.016.016,0,0,1,.016.006Zm.143.3v-.107a.092.092,0,0,1,.027.041c.011.035.007.066-.008.069s-.011,0-.019,0Zm0-.107a.024.024,0,0,0-.019-.007c-.015.007-.019.038-.008.068a.094.094,0,0,0,.027.046Zm-.143-.108v-.081a.057.057,0,0,1,.016.033c.008.022.008.046,0,.048a.013.013,0,0,1-.013,0Zm.559-.021a.157.157,0,0,1-.029-.1.771.771,0,0,0,.029.415Zm.025,0v.4q-.014-.042-.025-.085v-.316c.008.007.016.011.025,0Zm0-.45v.1a.062.062,0,0,1-.025-.05A.055.055,0,0,1,194.8,138.566Zm0,.1a.036.036,0,0,0,.023.006v-.11a.036.036,0,0,0-.023.006Zm0,.748c.007.022.014.046.023.069v-.528l-.012.039a.072.072,0,0,1-.012.024Zm.046-.54v.674a.507.507,0,0,1-.022-.065v-.528C194.827,138.928,194.835,138.9,194.843,138.872Zm0-.306v.1a.032.032,0,0,1-.022.007v-.11A.037.037,0,0,1,194.843,138.566Zm.44.736v-.127a.052.052,0,0,1,.033,0c.023.012.027.05.008.083S195.3,139.3,195.283,139.3Zm0-.127a.1.1,0,0,0-.043.042c-.015.038-.012.077.008.089a.039.039,0,0,0,.035,0v-.127Zm-.44-.512v-.1a.059.059,0,0,1,.022.048A.063.063,0,0,1,194.843,138.664Zm0,.883v-.674c.009-.032.018-.063.026-.094,0,.034.015.191.069.142a.423.423,0,0,0,.072-.154.551.551,0,0,1-.082.435.382.382,0,0,0-.032.088c-.007.034-.03.2.013.21a.04.04,0,0,1,.021.008c0,.027-.019.153-.069.08-.006-.012-.012-.027-.018-.042Zm.572-.469v.117c-.022-.008-.03-.046-.018-.085a.105.105,0,0,1,.018-.034Zm.345.55v-.084C195.775,139.593,195.772,139.615,195.76,139.627Zm0-.615a.084.084,0,0,1-.008.045.227.227,0,0,1-.083-.107.263.263,0,0,0,.046.261.394.394,0,0,1-.02.256.164.164,0,0,0,.023.164.057.057,0,0,0,.042,0v-.085a.035.035,0,0,0-.008-.022l.008-.047v-.461Zm-.32.183a.1.1,0,0,0,.046-.054c.011-.038,0-.076-.023-.085a.036.036,0,0,0-.022,0Zm-.025,0v-.117a.117.117,0,0,1,.025-.02v.139a.031.031,0,0,1-.025,0Zm.4-.318v.482a.488.488,0,0,1-.046.061l-.008.053v-.458a.264.264,0,0,1,.054-.135Zm.522.291c-.08.117-.026.37-.1.577a.513.513,0,0,0,.1-.276Zm-.282.229v-.13a.057.057,0,0,1,.034,0c.023.013.026.049.007.089a.093.093,0,0,1-.041.041Zm0-.13a.072.072,0,0,0-.038.046c-.02.034-.015.074.006.085a.038.038,0,0,0,.032,0Zm-.244.1v-.482a.021.021,0,0,1,.026-.007.565.565,0,0,0,.027.279A.312.312,0,0,1,195.81,139.363Zm.576-.235v.069a1.05,1.05,0,0,0-.05.277v-.306a.2.2,0,0,1,.05-.045Zm0,.069a.425.425,0,0,1,.049-.086.205.205,0,0,0-.049.016Zm-.834-3.864a.2.2,0,0,0,.04-.086.989.989,0,0,0,.04-.188.81.81,0,0,1,.014.279.2.2,0,0,0,.049.195c.023.061.076.153-.018.092-.031-.062-.053-.112-.1-.083a1.433,1.433,0,0,0,.128.494,1.143,1.143,0,0,1,.117-.039c.117-.034.235-.066.352-.092.08-.015.16-.032.241-.046l.156-.023A4,4,0,0,1,197,135.8h.016a4.331,4.331,0,0,1,.442.019,1.041,1.041,0,0,1,.153.02,2.65,2.65,0,0,1,.305.056c.1.02.19.046.288.076.056.015.117.039.175.058a3.327,3.327,0,0,0,.1-.32c.015-.061.03-.127.047-.187a2.778,2.778,0,0,1,.261-.789.9.9,0,0,0-.307.131,1.245,1.245,0,0,0-.171.139l-.026.022-.069.058v-.042h0V135h0v-.085h0l-.007-.056a.716.716,0,0,0-.035-.117.861.861,0,0,0-.142-.235,1.018,1.018,0,0,0-.11.039.723.723,0,0,0-.182.11.605.605,0,0,0-.123.146.94.94,0,0,0-.061.107l-.047.1-.022-.107-.022-.08a.9.9,0,0,0-.117-.272.838.838,0,0,0-.271-.256.284.284,0,0,0-.049.042,1.49,1.49,0,0,0-.235.268.914.914,0,0,0-.124.305l-.032.141-.041-.137a.019.019,0,0,0-.008-.015.873.873,0,0,0-.156-.3v-.007a.9.9,0,0,0-.235-.2l-.058-.029-.058.061-.061.083a.921.921,0,0,0-.18.4v.007l-.015.093-.063-.067a1.048,1.048,0,0,0-.209-.225.454.454,0,0,0-.14-.073,1.832,1.832,0,0,1,.151.66v.031Zm.2-.286a.175.175,0,0,1-.046-.067c-.016.015-.026.03-.012.084.012.015.031.022.041.039a.108.108,0,0,0,.016.058v-.117Zm.066.109v-.1c.014-.007.033,0,.056.015a.76.76,0,0,1,.061.061c.019.047,0,.054-.031.054C195.883,135.152,195.855,135.126,195.819,135.156Zm.288-.117v.147a.281.281,0,0,1-.06-.205Zm-.288.013c-.016,0-.024.008-.039.012l-.027-.021v.117c.013.015.032.015.061,0h0v-.1Zm.4.478a.545.545,0,0,0,.046-.489.165.165,0,0,1,.032-.149.471.471,0,0,1-.077.019c-.011-.046-.024-.088-.031-.134-.008.015-.012.031-.019.046v.469a.278.278,0,0,1,.019.049.117.117,0,0,1-.012.11l-.007.016v.092A.217.217,0,0,0,196.219,135.53Zm.191-.7a.025.025,0,0,0,0-.015c0-.022-.019-.034-.028-.031s-.009.02-.006.042.021.034.029.032h0v-.028Zm-.241.742v-.092l-.016.029C196.147,135.552,196.153,135.571,196.17,135.567Zm-.063-.383v-.147l.055.055a.537.537,0,0,1,.008-.268v.469a.528.528,0,0,0-.046-.088l-.018-.027Zm.325-.343v.077a.053.053,0,0,1-.021-.028v-.054a.018.018,0,0,1,.018.008Zm.135.282v-.1a.08.08,0,0,1,.027.042c.012.031.008.061-.008.065a.046.046,0,0,1-.019,0Zm0-.1s-.012-.008-.015,0a.075.075,0,0,0-.007.061.129.129,0,0,0,.022.046v-.1Zm-.135-.1v-.077a.082.082,0,0,1,.018.031c.007.022.007.045,0,.048a.017.017,0,0,1-.013,0Zm.535-.022a.152.152,0,0,1-.029-.1.766.766,0,0,0,.029.394Zm.025,0v.377l-.025-.081v-.3c.009.008.018.011.025,0Zm0-.428v.1a.058.058,0,0,1,0-.1Zm0,.1a.05.05,0,0,0,.023.007v-.1a.049.049,0,0,0-.023.006v.1Zm0,.71c.007.022.014.046.023.068v-.5l-.012.035a.055.055,0,0,1-.012.021Zm.043-.512v.65a.583.583,0,0,1-.02-.065v-.5l.02-.079Zm0-.292v.093a.033.033,0,0,1-.02.008v-.1a.032.032,0,0,1,.02.007Zm.423.7v-.117a.028.028,0,0,1,.032,0c.022.011.022.046,0,.08a.135.135,0,0,1-.038.042Zm0-.117a.1.1,0,0,0-.042.042.067.067,0,0,0,.007.08.06.06,0,0,0,.035,0v-.117Zm-.417-.489v-.094a.057.057,0,0,1,.021.046.056.056,0,0,1-.021.047Zm0,.844v-.644l.025-.089c0,.035.016.183.066.134a.381.381,0,0,0,.068-.144.483.483,0,0,1-.08.412.488.488,0,0,0-.027.083c-.007.035-.031.191.008.2h.022c0,.027-.015.15-.066.08l-.016-.033Zm.548-.446v.117c-.022-.008-.029-.046-.019-.08a.088.088,0,0,1,.019-.034Zm.329.522v-.075c.016.046.012.066,0,.076Zm0-.587a.211.211,0,0,1-.007.041.2.2,0,0,1-.076-.1.248.248,0,0,0,.039.249.37.37,0,0,1-.015.241.155.155,0,0,0,.022.157h.038v-.076a.073.073,0,0,0-.007-.023l.007-.045v-.439Zm-.305.171a.073.073,0,0,0,.042-.05c.011-.038,0-.072-.019-.08h-.023v.13Zm-.023,0v-.117a.074.074,0,0,1,.023-.02v.13a.053.053,0,0,1-.023,0Zm.381-.3v.46a.4.4,0,0,1-.041.053l-.012.054V134.9A.265.265,0,0,1,197.97,134.769Zm.5.272c-.075.117-.026.352-.1.547a.44.44,0,0,0,.1-.261v-.279Zm-.266.218v-.117a.045.045,0,0,1,.031,0c.019.012.022.046.007.081a.135.135,0,0,1-.038.042Zm0-.117a.117.117,0,0,0-.042.042c-.015.035-.012.068.008.081a.057.057,0,0,0,.034,0v-.117Zm-.235.093v-.46c.009-.009.019-.014.027-.011a.493.493,0,0,0,.025.268A.3.3,0,0,1,197.974,135.235Zm.554-.229v.065a1.058,1.058,0,0,0-.049.263v-.285a.151.151,0,0,1,.049-.041Zm0,.065a.325.325,0,0,1,.048-.084.166.166,0,0,0-.048.02Zm-7.223.257a.157.157,0,0,0,.04-.086.829.829,0,0,0,.034-.18.7.7,0,0,1,.02.279.184.184,0,0,0,.048.195c.025.061.074.153-.022.092-.029-.063-.054-.117-.1-.081a1.445,1.445,0,0,0,.127.492,1.156,1.156,0,0,1,.117-.039c.117-.034.235-.066.352-.092l.235-.046.157-.023a4.021,4.021,0,0,1,.427-.034h.016a4.367,4.367,0,0,1,.443.019,1.054,1.054,0,0,1,.153.02,2.677,2.677,0,0,1,.305.056c.1.02.19.046.288.076.056.015.117.039.175.058.038-.107.068-.214.1-.32.015-.061.031-.127.046-.187a2.816,2.816,0,0,1,.262-.789.9.9,0,0,0-.308.131,1.172,1.172,0,0,0-.171.138l-.027.022-.069.058v-.042h0V135h0v-.085l-.007-.059a.624.624,0,0,0-.036-.117.829.829,0,0,0-.141-.235,1.02,1.02,0,0,0-.11.039.751.751,0,0,0-.183.11.629.629,0,0,0-.117.146.783.783,0,0,0-.061.107l-.047.1-.022-.107-.022-.08a.934.934,0,0,0-.117-.272.831.831,0,0,0-.272-.256.274.274,0,0,0-.048.042,1.408,1.408,0,0,0-.235.268.945.945,0,0,0-.126.305l-.031.141-.042-.137a.02.02,0,0,0-.007-.015.857.857,0,0,0-.157-.3v-.007a.918.918,0,0,0-.235-.2l-.057-.029-.058.061-.062.083a.939.939,0,0,0-.178.4v.007l-.015.093-.054-.073a1.048,1.048,0,0,0-.214-.229.461.461,0,0,0-.141-.073,1.81,1.81,0,0,1,.151.66v.031Zm.2-.288a.169.169,0,0,1-.047-.066c-.013.015-.023.031-.008.084.012.015.027.022.042.039a.1.1,0,0,0,.013.059v-.117Zm.063.11v-.1a.061.061,0,0,1,.062.015c.019.019.036.039.061.061.018.047,0,.054-.033.054C191.639,135.146,191.612,135.12,191.57,135.151Zm.292-.117v.147a.265.265,0,0,1-.059-.205Zm-.292.013a.13.13,0,0,0-.034.012l-.029-.022v.117c.013.014.033.014.063-.006v-.1Zm.4.482a.542.542,0,0,0,.045-.489.177.177,0,0,1,.033-.149.734.734,0,0,1-.077.019c-.011-.046-.022-.088-.033-.134,0,.015-.012.031-.015.046v.469a.2.2,0,0,1,.015.049.129.129,0,0,1-.007.11l-.008.016v.092a.175.175,0,0,0,.048-.034Zm.192-.7a.025.025,0,0,0,0-.015c-.008-.022-.02-.034-.032-.03s-.011.02,0,.042.02.034.032.032a.1.1,0,0,0,0,.029v-.056Zm-.241.742v-.092l-.016.029C191.9,135.551,191.909,135.57,191.925,135.566Zm-.063-.383v-.147l.056.055a.439.439,0,0,1,.007-.268v.469c-.012-.031-.031-.058-.046-.088l-.018-.027Zm.325-.344v.079a.068.068,0,0,1-.021-.028v-.054h0a.019.019,0,0,1,.018.007Zm.135.283v-.1a.088.088,0,0,1,.027.042c.007.031.007.061-.007.065a.04.04,0,0,1-.02,0Zm0-.1c-.007,0-.011-.008-.018,0a.073.073,0,0,0-.009.061.178.178,0,0,0,.027.046v-.1Zm-.135-.1v-.079a.118.118,0,0,1,.018.032c.006.022,0,.045-.008.048a.009.009,0,0,1-.009,0Zm.534-.023a.133.133,0,0,1-.028-.094.755.755,0,0,0,.028.4Zm.023,0v.381c-.008-.027-.015-.055-.023-.082v-.305c.008.008.016.012.023,0Zm0-.428v.094a.062.062,0,0,1-.021-.048A.058.058,0,0,1,192.745,134.466Zm0,.094a.049.049,0,0,0,.022.007v-.094a.039.039,0,0,0-.022.007v.08Zm0,.716c.007.021.014.041.022.062v-.5l-.009.035a.036.036,0,0,1-.013.022Zm.045-.518v.654a.371.371,0,0,1-.022-.063v-.5a.3.3,0,0,1,.022-.079Zm0-.293v.1a.049.049,0,0,1-.022.007v-.094a.048.048,0,0,1,.022.006Zm.42.7v-.117c.012,0,.021-.008.032,0a.071.071,0,0,1,.007.08.081.081,0,0,1-.039.042Zm0-.117a.1.1,0,0,0-.039.042c-.019.033-.015.068.008.08a.045.045,0,0,0,.031,0v-.117Zm-.42-.488v-.09a.062.062,0,0,1,0,.1Zm0,.842v-.639c.009-.029.019-.06.026-.089,0,.035.013.183.066.134a.4.4,0,0,0,.068-.144c0,.129.047.259-.08.412a.41.41,0,0,0-.028.083c-.007.035-.033.191.008.2h.023c0,.027-.018.15-.065.08l-.019-.039Zm.548-.446v.117c-.022-.009-.029-.046-.018-.08a.11.11,0,0,1,.018-.035Zm.33.523v-.07c.016.046.012.066,0,.076Zm0-.587a.1.1,0,0,1-.007.042c-.047-.023-.057-.061-.08-.1a.248.248,0,0,0,.041.249.375.375,0,0,1-.014.241.154.154,0,0,0,.019.157h.041v-.073a.034.034,0,0,0-.007-.023l.007-.045v-.44Zm-.305.173c.015,0,.029-.023.042-.05a.066.066,0,0,0-.022-.08h-.02Zm-.025,0v-.117a.077.077,0,0,1,.025-.019v.13a.053.053,0,0,1-.023,0Zm.381-.3v.457a.4.4,0,0,1-.045.057l-.007.054v-.44A.254.254,0,0,1,193.719,134.764Zm.317.065v0a.649.649,0,0,0-.045-.189c-.012-.027-.023-.054-.038-.081a1.24,1.24,0,0,0-.135-.2l-.011-.015h-.023a1.079,1.079,0,0,0-.117.038.839.839,0,0,0-.235.134.741.741,0,0,0-.073.076.966.966,0,0,0-.085.117.794.794,0,0,0-.068-.18c-.015-.034-.039-.068-.059-.1a.907.907,0,0,0-.32-.293l-.022-.012-.019.015c-.007,0-.015.012-.022.015a1.478,1.478,0,0,0-.3.336.832.832,0,0,0-.108.214.46.46,0,0,0-.038-.076.713.713,0,0,0-.1-.157.38.38,0,0,0-.054-.061.983.983,0,0,0-.235-.18l-.05-.024-.026-.012-.02.02a1.033,1.033,0,0,0-.075.088.511.511,0,0,0-.066.084.965.965,0,0,0-.117.2.635.635,0,0,0-.057.164,1.367,1.367,0,0,0-.117-.127,1.443,1.443,0,1,1,2.886.048c-.021.011-.04.021-.059.033a1.213,1.213,0,0,0-.187.141Zm.188.22c-.081.117-.027.352-.1.547a.5.5,0,0,0,.1-.261Zm-.271.218v-.117a.045.045,0,0,1,.031,0c.022.012.026.046.007.081a.083.083,0,0,1-.038.042Zm0-.117a.1.1,0,0,0-.039.042c-.02.035-.015.069.007.081a.049.049,0,0,0,.032,0v-.117Zm-.235.088v-.457a.023.023,0,0,1,.026-.009.606.606,0,0,0,.022.268A.281.281,0,0,1,193.718,135.237Zm.554-.227v.065a.9.9,0,0,0-.047.265v-.292a.117.117,0,0,1,.047-.043Zm0,.065a.427.427,0,0,1,.048-.082.179.179,0,0,0-.048.018Zm-8.17,6.558c1.9-.082,3.463.057,4.35,2.113V132.062H186.1v3.873l2.606-3.666.313.268-.58.815.79.6-.229.31-.478-.329-.188.251.469.36-.259.352-.469-.332-.187.235.451.364-.275.381-.768-.6-.954,1.326,1.21,1.7.295.418a.454.454,0,0,1,.235.021l.024-.014h.007l.008-.007a.289.289,0,0,1,.235.336l.134-.053h.007a.813.813,0,0,1,.432-.046.653.653,0,0,1,.378.235.3.3,0,0,1,.171-.156.284.284,0,1,1,.195.534.327.327,0,0,1-.107.02.18.18,0,0,1-.049,0c.08.283-.054.525-.52.857h-.007a.131.131,0,0,1,.038,0,.284.284,0,0,1,.092.554.3.3,0,0,1-.1.019.333.333,0,0,1-.092-.015.279.279,0,0,1-.167-.386,1.9,1.9,0,0,1-.379.2h-.007a.768.768,0,0,1-.4.053.678.678,0,0,1-.149-.038.289.289,0,0,1-.191.225.313.313,0,0,1-.073.019h-.029a.282.282,0,0,1-.283-.283.286.286,0,0,1,.19-.271l.035-.011a.133.133,0,0,1-.02-.035.693.693,0,0,1,.107-.84c.023-.022.061-.069.085-.089a.641.641,0,0,1-.085-.026.278.278,0,0,1-.141-.339l.03-.023a.271.271,0,0,1,.066-.217l.023-.035-.072-.1L186.1,136.6v5.032Zm12.943-9.949v-3.84h-3.426v3.842Zm0-5.609v-3.756h-3.426v3.756Zm-5.164-3.756h-3.428v3.756h3.431v-3.756Zm-3.431,5.525v3.842h3.431v-3.842Zm.027,16.448c-.988-2.365-2.842-2.263-5.078-2.137l-.372.02a6.149,6.149,0,0,1-2.407-.281,1.576,1.576,0,0,1-.993-1.47l-.006-.226V121.77h17.66v9.918h0v.377h0v8.188l-.006.235a1.871,1.871,0,0,1-.682,1.275,3.9,3.9,0,0,1-2.261.413c-.359-.007-.69-.015-1-.025-2.659-.072-3.45-.094-4.857,2.137Zm1.69-19.188a2.2,2.2,0,0,1,.316.023,5.072,5.072,0,0,1-.087-.711,4.872,4.872,0,0,1,.691.085,1.877,1.877,0,0,1,0-.627,4.8,4.8,0,0,1-.691.088,4.863,4.863,0,0,1,.087-.7,1.832,1.832,0,0,1-.316.031,1.514,1.514,0,0,1-.322-.031,4.221,4.221,0,0,1,.1.7,4.48,4.48,0,0,1-.7-.092,1.7,1.7,0,0,1,0,.646,4.433,4.433,0,0,1,.7-.1,4.9,4.9,0,0,1-.083.7,2,2,0,0,1,.3-.023Zm5.255,0a1.666,1.666,0,0,1,.275.023,5.1,5.1,0,0,1-.092-.711,4.828,4.828,0,0,1,.691.085,1.939,1.939,0,0,1,0-.627,4.719,4.719,0,0,1-.691.088,4.566,4.566,0,0,1,.092-.7,2.329,2.329,0,0,1-.275.031,1.661,1.661,0,0,1-.363-.031,4.477,4.477,0,0,1,.1.7,4.435,4.435,0,0,1-.7-.092,1.705,1.705,0,0,1,0,.646,4.442,4.442,0,0,1,.7-.1,5.439,5.439,0,0,1-.08.7,1.784,1.784,0,0,1,.344-.023Zm-.1,5.614a1.826,1.826,0,0,1,.317.027,4.892,4.892,0,0,1-.087-.711,4.932,4.932,0,0,1,.691.084,1.88,1.88,0,0,1,0-.627,4.887,4.887,0,0,1-.691.088,4.336,4.336,0,0,1,.087-.7,2.11,2.11,0,0,1-.317.034,1.515,1.515,0,0,1-.32-.034,4.224,4.224,0,0,1,.1.7,4.062,4.062,0,0,1-.7-.088,1.593,1.593,0,0,1,0,.646,3.96,3.96,0,0,1,.7-.1,4.43,4.43,0,0,1-.08.7,2.849,2.849,0,0,1,.3-.027Zm-5.207-.041a1.689,1.689,0,0,1,.367.026,5.1,5.1,0,0,1-.089-.7,4.656,4.656,0,0,1,.691.08,1.939,1.939,0,0,1,0-.627,4.852,4.852,0,0,1-.691.092,4.482,4.482,0,0,1,.089-.7,1.662,1.662,0,0,1-.367.031,1.288,1.288,0,0,1-.271-.031,4.778,4.778,0,0,1,.1.7,4.462,4.462,0,0,1-.7-.092,1.732,1.732,0,0,1,0,.646,4.413,4.413,0,0,1,.7-.1,4.79,4.79,0,0,1-.08.7,1.8,1.8,0,0,1,.251-.026Zm4.279,8.1a1.506,1.506,0,1,0-3.012-.06,1.442,1.442,0,0,1,.126.137.7.7,0,0,1,.061-.173.94.94,0,0,1,.123-.207.569.569,0,0,1,.068-.088c.023-.033.05-.06.079-.093l.021-.02.028.012.052.025a1.056,1.056,0,0,1,.251.188.4.4,0,0,1,.055.063.781.781,0,0,1,.109.164.5.5,0,0,1,.039.08.911.911,0,0,1,.117-.224,1.571,1.571,0,0,1,.311-.352c.008,0,.015-.012.023-.015l.02-.016.023.012a.967.967,0,0,1,.335.308c.021.036.045.072.061.108a.807.807,0,0,1,.072.187,1.033,1.033,0,0,1,.088-.117.692.692,0,0,1,.075-.08.85.85,0,0,1,.244-.141,1.166,1.166,0,0,1,.123-.04h.025l.012.016a1.19,1.19,0,0,1,.14.208c.015.028.027.055.04.083a.733.733,0,0,1,.048.212,1.1,1.1,0,0,1,.195-.148.558.558,0,0,1,.053-.029Zm.681-4.636a.909.909,0,0,1,.322.293c.019.035.042.069.057.1a.744.744,0,0,1,.068.18.975.975,0,0,1,.084-.117.89.89,0,0,1,.073-.076.837.837,0,0,1,.235-.134,1.172,1.172,0,0,1,.117-.038h.023l.011.015a1.166,1.166,0,0,1,.135.2.827.827,0,0,1,.038.081.661.661,0,0,1,.046.2,1.237,1.237,0,0,1,.187-.141c.016-.011.034-.02.052-.029a1.443,1.443,0,1,0-2.886-.057,1.225,1.225,0,0,1,.123.133.685.685,0,0,1,.057-.164.965.965,0,0,1,.117-.2A.591.591,0,0,1,196,134.3a1.024,1.024,0,0,1,.075-.088l.02-.02.027.012a.474.474,0,0,0,.049.023.991.991,0,0,1,.241.18.439.439,0,0,1,.053.061.713.713,0,0,1,.1.157.465.465,0,0,1,.039.076.867.867,0,0,1,.107-.214,1.477,1.477,0,0,1,.3-.333c.007,0,.015-.012.022-.015l.019-.015.022.012Zm-8.16,5.659a1.174,1.174,0,0,1-.461.31h0a.937.937,0,0,1-.167.042.519.519,0,0,1-.325-.038.377.377,0,0,1,0-.662h.007a.545.545,0,0,1,.47.117v-.018l.019.011c-.107-.313.019-.5.191-.573a.377.377,0,0,1,.275.011c.156.069.259.249.149.547a.785.785,0,0,1-.154.244Z" transform="translate(-160.384 -106.833)" fill="#fff"/>
  <path id="Path_9" data-name="Path 9" d="M135.3,198.3l-.289.748a1.712,1.712,0,0,1,.289-.039,4.176,4.176,0,0,1,2.817,1.45,14.067,14.067,0,0,1,1.073,1.149,11.937,11.937,0,0,0,2.2,2.016,11.481,11.481,0,0,0,2.872,1.488,9.474,9.474,0,0,0,2.414.506q.673.047,1.309.045a12.963,12.963,0,0,0,3.8-.552,11.151,11.151,0,0,0,2.959-1.418,14.163,14.163,0,0,0,2.831-2.561q.2-.228.39-.47l.1-.107a4.279,4.279,0,0,1,3.09-1.559h.084l-.084-.217-.566-1.447c-.689-1.128-1.662-.853-2.525-.3-.168.109-.333.235-.49.352s-.272.218-.4.325c-.846.717-1.643,1.383-2.433,1.966a14.5,14.5,0,0,1-2.959,1.772c-.181.077-.363.147-.545.21a9.221,9.221,0,0,1-3.251.535,9.646,9.646,0,0,1-3.723-.861,14.559,14.559,0,0,1-2.872-1.722,21.761,21.761,0,0,1-1.808-1.536,9.091,9.091,0,0,0-1.464-1.119,7.6,7.6,0,0,0-.725-.393,1.175,1.175,0,0,0-1.688.676L135.3,198.3Zm0,1.027a.731.731,0,0,0-.678.822c.009.38.3.629.678.793a5.1,5.1,0,0,0,1.322.312,4.5,4.5,0,0,1,1.5.309,1.136,1.136,0,0,1,.579.52c-.026-.117-.046-.244-.075-.368a.519.519,0,0,0-.093-.279c-.142-.164-.278-.316-.411-.457a5.929,5.929,0,0,0-2.142-1.568,1.571,1.571,0,0,0-.68-.08Zm2.817-5.15a12.947,12.947,0,0,0,.414-1.347,2.087,2.087,0,0,0-.414-2.13,2.835,2.835,0,0,0-1.113-.575h-1.39a2.471,2.471,0,0,1,.842,1.831,7.672,7.672,0,0,1-1.151,3.094v.009a16.21,16.21,0,0,0-1.167,3.192,4.35,4.35,0,0,0,.67,4.1c.162.148.327.288.5.415a3.8,3.8,0,0,0,2.133.822,1.5,1.5,0,0,0,.689-.217.791.791,0,0,0,0-1.408l-.035-.024a3.126,3.126,0,0,0-1.195-.329,8.022,8.022,0,0,1-1.6-.336c-.745-.277-1.222-.8-.755-1.967q.38-.937.755-1.878l.169-.421a1.562,1.562,0,0,1,1.894-.8c.235-.677.514-1.356.758-2.035Zm-2.817-3.907c-.781-.569-1.244.281-.43,1.041.165.153.307.293.43.424.575.61.714.982.673,1.246a3.576,3.576,0,0,0,.177-1.291,2,2,0,0,0-.574-1.174A1.815,1.815,0,0,0,135.3,190.268Zm0,3.182a.366.366,0,0,0,.383-.311,1.358,1.358,0,0,0-.383-.975,3.927,3.927,0,0,0-.42-.425c-.02-.016-.04-.036-.062-.054-.647-.56-1.151-1.878.117-1.878h1.9a4.859,4.859,0,0,0,1.283-2.424c.259-1.131.209-2.2.33-2.782a2.219,2.219,0,0,0-.33.352,2.678,2.678,0,0,0-.486,1.457h-.286a2.8,2.8,0,0,0-1.208-2.008,3.189,3.189,0,0,1-.715,3.691l-.127.14A5.179,5.179,0,0,0,133.788,191a2.292,2.292,0,0,0,.41,1.8,1.721,1.721,0,0,0,1.1.662Zm8.97,9.066a.716.716,0,0,0-.6.439c-.217.538.009,1.039.6,1.056a.8.8,0,0,0,.106,0,1.7,1.7,0,0,0,.235-.457c.022-.093,0-.175-.148-.235l.034-.052.671.3-.032.053c-.268-.076-.4.458-.536.654a1.873,1.873,0,0,1-.335,0,1.383,1.383,0,0,1-.581-.174,1.013,1.013,0,0,1-.376-1.278,1.036,1.036,0,0,1,.961-.594.96.96,0,0,1,.538.178c.108.077.279.327.418.22l.1.049-.235.545-.1-.041a.659.659,0,0,0-.725-.669Zm-6.148-3.376.6-.6c.14-.185.229-.171.117-.444l.035-.035.6.593-.034.036c-.229-.092-.331-.062-.446.041-.217.188-.413.407-.613.61-.235.241-.109.36.1.559s.3.244.556.14l.061.09-.458.242-.52-.511-.513-.5.08-.081c.158.117.18.117.3-.014l.129-.128Zm3.276,2.07.042-.07c.109-.2.181-.215.041-.409l.062-.07.675.427-.05.069c-.278-.033-.316.092-.435.3l-.3.5-.036.061c-.107.172-.235.365-.108.522l-.033.087-.681-.426.053-.079c.235.02.283-.143.4-.319l.365-.587Zm6.591,2.128-.019-.049-.333.779h.643Zm6.755-1.547a.488.488,0,1,0,.742-.633l-.326-.47c-.117-.167-.182-.324-.416-.248l-.025.008-.027-.04.052-.038.488-.344.027.066c-.033.026-.066.048-.073.078-.043.155.4.655.512.822a.756.756,0,0,1-.055,1.045.777.777,0,0,1-.9.165,1.027,1.027,0,0,1-.216-.157,1.408,1.408,0,0,1-.142-.174l-.239-.337c-.14-.2-.209-.411-.489-.292l-.045-.052.657-.47.028.041c-.211.171-.077.316.048.5l.378.5a.347.347,0,0,0,.025.031Zm2.831-1.845c.418.08.757-.454.163-.556a1.6,1.6,0,0,0-.163-.019,1.114,1.114,0,0,1-.476-.1.574.574,0,0,1-.235-.663c.127-.262.58-.272.715-.373a.091.091,0,0,0,.033-.041l.1-.023.208.587-.1.022c-.117-.163-.117-.205-.212-.245l-.022-.008c-.451-.155-.7.4-.16.534l.16.026.13.02a1.081,1.081,0,0,1,.359.09.4.4,0,0,1,.217.235.521.521,0,0,1-.073.533.565.565,0,0,1-.144.131.606.606,0,0,1-.235.087c-.074.008-.168.016-.25.031-.1.018-.185.047-.193.1l-.061.022-.219-.609.107-.022a.6.6,0,0,0,.366.252Zm-9.586,2.927h.1l.688,1.506a.387.387,0,0,0,.246.263v.084h-.737v-.068c.305-.011.155-.229.009-.372h-.723c-.117.154-.281.337.056.365v.075l-.673.008.012-.1c.014-.019.1-.036.112-.055a10.328,10.328,0,0,0,.852-1.712h.058Zm3.8.5.133.124.173-1.5.493-.191.025.074c-.17.083-.1.282-.015.5l.259.668c.087.227.117.339.367.4l.018.047-.738.288-.018-.047c.289-.163.153-.333.068-.553l-.235-.486-.117,1.209-.215.07-.2-.154-.835-.633.2.516c.1.224.108.412.431.378l.014.045-.6.248-.031-.069c.032-.027.055-.035.058-.067a5.305,5.305,0,0,0-.5-1.417c-.023-.052-.045-.073-.158-.086l-.027-.065.5-.194.952.889Zm6.28-2.33a1.877,1.877,0,0,0-.379,1.637,1.479,1.479,0,0,1,.379-.8c.543-.553,1.488-.4,2.089-.478a2.246,2.246,0,0,0,1-.352c.813-.561.715-1.556,0-1.747a1.5,1.5,0,0,0-1.077.205,5.916,5.916,0,0,0-2.013,1.54Zm3.09-8.959c.174-.27.383-.539.58-.809.631-.939.068-1.423-.58-.978a2.211,2.211,0,0,0-.712.927,2.765,2.765,0,0,0,.257,2.3h.117a1.628,1.628,0,0,1,.336-1.445Zm0,.744a.81.81,0,0,0,0,.587.188.188,0,0,0,.053.048c.07.04.176.014.3-.052a2.21,2.21,0,0,0,1.088-2.224,6.167,6.167,0,0,0-1.441-2.9c-.2-.264-.424-.549-.68-.859a3.017,3.017,0,0,1-.229-3.112,3.107,3.107,0,0,0-1.23,2.058l-.279-.018a2.834,2.834,0,0,0-.673-1.682c-.049-.056-.1-.111-.155-.165a7.933,7.933,0,0,1,.155.982c.034.358.047.722.052,1.135a5.47,5.47,0,0,0,1.408,3.176c.587.019,1.075.04,1.628.057l.352.011c1.1.181.786,1.235.29,1.85a3.546,3.546,0,0,0-.633,1.065l-.014.049Zm-3.09-1.9a3.7,3.7,0,0,0,0,2.739,22.524,22.524,0,0,0,.931,2.573,1.88,1.88,0,0,1,1.452.243,4.712,4.712,0,0,1,.7,1.174,8.291,8.291,0,0,1,.849,2.5,1.549,1.549,0,0,1-.849,1.235,3.844,3.844,0,0,1-1.8.344,1.152,1.152,0,0,0-1.291.749,2.25,2.25,0,0,0-.126.671.519.519,0,0,0,.126.187c.42.413,1.653.541,3.09-.513l.029-.021c2.04-1.69,1.37-4.16.352-6.733-.106-.264-.235-.544-.376-.83-.811-1.667-1.936-3.654-.284-5.164h-1.514a1.842,1.842,0,0,0-1.291.842Z" transform="translate(-118.143 -161.741)" fill="#fff"/>
</svg>
