<svg xmlns="http://www.w3.org/2000/svg" width="44.118" height="57.102" viewBox="0 0 44.118 57.102">
  <g id="Layer_1_1_" transform="translate(0.5 0.5)">
    <path id="Path_1" data-name="Path 1" d="M13.435,29.653V40.2a1.076,1.076,0,0,1-1.072,1.072,1.029,1.029,0,0,1-.549-.157L9.07,39.467a2.682,2.682,0,0,1-1.307-2.3V32.685a2.682,2.682,0,0,0-1.307-2.3l-5.149-3.11A2.682,2.682,0,0,1,0,24.974V1.072A1.068,1.068,0,0,1,1.072,0a1.119,1.119,0,0,1,.575.157L3.529,1.333A2.715,2.715,0,0,1,4.8,3.62V21.406a2.682,2.682,0,0,0,1.307,2.3l6.051,3.633A2.755,2.755,0,0,1,13.435,29.653Z" fill="none" stroke="#fff" stroke-width="1"/>
    <path id="Path_2" data-name="Path 2" d="M67.128,39.218,56.621,32.986a1.071,1.071,0,0,0-1.464.361A1.006,1.006,0,0,0,55,33.89V46.416a2.641,2.641,0,0,0,1.307,2.271l6.038,3.586a2.641,2.641,0,0,1,1.307,2.271V81.055a2.64,2.64,0,0,0,1.307,2.271l1.856,1.1a1.071,1.071,0,0,0,1.464-.361,1.006,1.006,0,0,0,.157-.542V41.475A2.668,2.668,0,0,0,67.128,39.218Z" transform="translate(-47.935 -28.545)" fill="none" stroke="#fff" stroke-width="1"/>
    <path id="Path_3" data-name="Path 3" d="M231.1,29.653V40.2a1.076,1.076,0,0,0,1.072,1.072,1.029,1.029,0,0,0,.549-.157l2.744-1.647a2.682,2.682,0,0,0,1.307-2.3V32.7a2.682,2.682,0,0,1,1.307-2.3l5.149-3.1a2.682,2.682,0,0,0,1.307-2.3V1.072A1.068,1.068,0,0,0,243.463,0a1.086,1.086,0,0,0-.575.157l-1.882,1.176a2.715,2.715,0,0,0-1.268,2.287V21.406a2.682,2.682,0,0,1-1.307,2.3l-6.038,3.633A2.767,2.767,0,0,0,231.1,29.653Z" transform="translate(-201.416)" fill="none" stroke="#fff" stroke-width="1"/>
    <path id="Path_4" data-name="Path 4" d="M177.407,39.175l10.507-6.231a1.086,1.086,0,0,1,1.477.348,1.049,1.049,0,0,1,.157.555V46.374a2.64,2.64,0,0,1-1.307,2.271L182.2,52.231A2.64,2.64,0,0,0,180.9,54.5V81.013a2.641,2.641,0,0,1-1.307,2.271l-1.856,1.1a1.072,1.072,0,0,1-1.464-.361,1.006,1.006,0,0,1-.157-.542L176.1,41.459A2.678,2.678,0,0,1,177.407,39.175Z" transform="translate(-153.481 -28.503)" fill="none" stroke="#fff" stroke-width="1"/>
  </g>
</svg>
