<svg xmlns="http://www.w3.org/2000/svg" xmlns:xlink="http://www.w3.org/1999/xlink" width="131" height="131" viewBox="0 0 131 131">
  <defs>
    <filter id="Rectangle_1140" x="0" y="0" width="131" height="131" filterUnits="userSpaceOnUse">
      <feOffset dx="3" dy="3" input="SourceAlpha"/>
      <feGaussianBlur stdDeviation="3" result="blur"/>
      <feFlood flood-color="#dfdfdf" flood-opacity="0.161"/>
      <feComposite operator="in" in2="blur"/>
      <feComposite in="SourceGraphic"/>
    </filter>
  </defs>
  <g id="Component_7_5" data-name="Component 7 – 5" transform="translate(6 6)">
    <g transform="matrix(1, 0, 0, 1, -6, -6)" filter="url(#Rectangle_1140)">
      <rect id="Rectangle_1140-2" data-name="Rectangle 1140" width="113" height="113" rx="15" transform="translate(6 6)" fill="#fff"/>
    </g>
    <g id="question_answer_black_48dp" transform="translate(27 27)">
      <path id="Path_253" data-name="Path 253" d="M0,0H60V60H0Z" fill="none"/>
      <path id="Path_254" data-name="Path 254" d="M34.5,7V24.5H9.925L8.45,25.975,7,27.425V7H34.5M37,2H4.5A2.507,2.507,0,0,0,2,4.5v35l10-10H37A2.507,2.507,0,0,0,39.5,27V4.5A2.507,2.507,0,0,0,37,2ZM49.5,12h-5V34.5H12v5A2.507,2.507,0,0,0,14.5,42H42L52,52V14.5A2.507,2.507,0,0,0,49.5,12Z" transform="translate(3 3)" fill="#131931"/>
    </g>
  </g>
</svg>
