<svg id="question_answer_black_48dp" xmlns="http://www.w3.org/2000/svg" width="60" height="60" viewBox="0 0 60 60">
  <path id="Path_253" data-name="Path 253" d="M0,0H60V60H0Z" fill="none"/>
  <path id="Path_254" data-name="Path 254" d="M34.5,7V24.5H9.925L8.45,25.975,7,27.425V7H34.5M37,2H4.5A2.507,2.507,0,0,0,2,4.5v35l10-10H37A2.507,2.507,0,0,0,39.5,27V4.5A2.507,2.507,0,0,0,37,2ZM49.5,12h-5V34.5H12v5A2.507,2.507,0,0,0,14.5,42H42L52,52V14.5A2.507,2.507,0,0,0,49.5,12Z" transform="translate(3 3)" fill="#131931"/>
</svg>
